<svg width="22" height="21" viewBox="0 0 22 21" fill="none" xmlns="http://www.w3.org/2000/svg">
<g clip-path="url(#clip0_43_24)">
<path d="M11.0516 0C5.25264 0 0.551636 4.70101 0.551636 10.5C0.551636 16.299 5.25264 21 11.0516 21C16.8506 21 21.5516 16.299 21.5516 10.5C21.5516 4.70101 16.8506 0 11.0516 0ZM15.6419 8.14759C15.6542 8.93062 15.5506 12.8458 11.8347 14.5423C8.11877 16.2388 5.30945 14.1247 5.30945 14.1247C7.38796 14.3204 8.75127 13.1459 8.75127 13.1459C7.06775 13.0741 6.57835 11.5081 6.57835 11.5081C7.17869 11.6125 7.5941 11.445 7.5941 11.445C5.71489 10.9405 5.76271 9.11334 5.76271 9.11334C6.29776 9.43089 6.76759 9.37433 6.76759 9.37433C5.02755 8.1215 6.09248 6.25529 6.09248 6.25529C8.05003 8.66964 10.9824 8.73698 10.9824 8.73698C10.9408 8.5433 10.9202 8.34569 10.9211 8.14759C10.9211 6.58157 12.301 5.79854 13.2702 5.79854C14.2395 5.79854 14.9567 6.52936 14.9567 6.52936C15.6941 6.49655 16.4837 5.99427 16.4837 5.99427C16.1704 6.94698 15.5116 7.29935 15.5116 7.29935C16.1087 7.23409 16.794 6.9339 16.794 6.9339C16.5624 7.4429 15.6419 8.14759 15.6419 8.14759Z" fill="#5C5444"/>
</g>
<defs>
<clipPath id="clip0_43_24">
<rect width="21" height="21" fill="white" transform="translate(0.551636)"/>
</clipPath>
</defs>
</svg>
