<svg width="22" height="21" viewBox="0 0 22 21" fill="none" xmlns="http://www.w3.org/2000/svg">
<g clip-path="url(#clip0_43_36)">
<path fill-rule="evenodd" clip-rule="evenodd" d="M11.3566 20.9999L11.366 21H11.3628L11.3566 20.9999ZM11.4307 21H11.4274L11.4368 20.9999L11.4307 21ZM11.3245 20.9998L11.3347 20.9998H11.3288L11.3245 20.9998ZM11.4646 20.9998H11.4588L11.4689 20.9998L11.4646 20.9998ZM11.2936 20.9995L11.3004 20.9996L11.295 20.9995H11.2936ZM11.4985 20.9995L11.4931 20.9996L11.4998 20.9995H11.4985ZM11.5324 20.9991L11.53 20.9992L11.5391 20.9991L11.5324 20.9991ZM11.2543 20.9991L11.2635 20.9992L11.2611 20.9991L11.2543 20.9991ZM11.5662 20.9986L11.5607 20.9987L11.5719 20.9986L11.5662 20.9986ZM11.2215 20.9986L11.2328 20.9987L11.2273 20.9986L11.2215 20.9986ZM11.6 20.9981L11.5925 20.9982L11.603 20.998L11.6 20.9981ZM11.1905 20.998L11.2009 20.9982L11.1935 20.9981L11.1905 20.998ZM11.1521 20.9972L11.1613 20.9974L11.1597 20.9974L11.1521 20.9972ZM11.6338 20.9974L11.6322 20.9974L11.6414 20.9972L11.6338 20.9974ZM11.1184 20.9964L11.131 20.9967L11.1259 20.9966L11.1184 20.9964ZM11.6676 20.9966L11.6624 20.9967L11.6751 20.9964L11.6676 20.9966ZM11.7013 20.9957L11.6931 20.9959L11.706 20.9955L11.7013 20.9957ZM11.0874 20.9955L11.1004 20.9959L11.0921 20.9957L11.0874 20.9955ZM11.0579 20.9946L11.0671 20.9949L11.0584 20.9946L11.0505 20.9944L11.0579 20.9946ZM11.735 20.9946L11.7263 20.9949L11.7356 20.9946L11.743 20.9944L11.735 20.9946ZM11.7687 20.9935L11.7641 20.9937L11.7783 20.9932L11.7687 20.9935ZM11.0152 20.9932L11.0294 20.9937L11.0248 20.9935L11.0152 20.9932ZM10.9845 20.992L10.9993 20.9926L10.9911 20.9923L10.9845 20.992ZM11.8024 20.9923L11.7941 20.9926L11.809 20.992L11.8024 20.9923ZM10.9543 20.9908L10.9689 20.9914L10.9575 20.991L10.9543 20.9908ZM11.836 20.991L11.8246 20.9914L11.8391 20.9908L11.836 20.991ZM10.9121 20.989L10.9277 20.9897L10.9239 20.9895L10.9121 20.989ZM11.8696 20.9895L11.8658 20.9897L11.8814 20.989L11.8696 20.9895ZM10.8818 20.9876L10.8979 20.9883L10.8903 20.988L10.8818 20.9876ZM11.9031 20.988L11.8955 20.9883L11.9117 20.9876L11.9031 20.988ZM10.8519 20.9861L10.8682 20.9869L10.8568 20.9863L10.8519 20.9861ZM11.9367 20.9863L11.9253 20.9869L11.9415 20.9861L11.9367 20.9863ZM11.9703 20.9846L11.9554 20.9854L11.9686 20.9847L11.9841 20.9838L11.9703 20.9846ZM10.8249 20.9847L10.8381 20.9854L10.8232 20.9846L10.8094 20.9838L10.8249 20.9847ZM12.0037 20.9827L11.9972 20.9831L12.0138 20.9821L12.0037 20.9827ZM10.7796 20.9821L10.7963 20.9831L10.7897 20.9827L10.7796 20.9821ZM10.75 20.9804L10.7666 20.9813L10.7563 20.9808L10.75 20.9804ZM12.0372 20.9808L12.0268 20.9813L12.0434 20.9804L12.0372 20.9808ZM10.7218 20.9786L10.7367 20.9795L10.7228 20.9787L10.7088 20.9778L10.7218 20.9786ZM12.0707 20.9787L12.0567 20.9795L12.0717 20.9786L12.0847 20.9778L12.0707 20.9787ZM12.104 20.9765L12.099 20.9768L12.1149 20.9758L12.104 20.9765ZM10.6785 20.9758L10.6944 20.9768L10.6894 20.9765L10.6785 20.9758ZM10.649 20.9737L10.6646 20.9748L10.656 20.9742L10.649 20.9737ZM12.1374 20.9742L12.1289 20.9748L12.1445 20.9737L12.1374 20.9742ZM10.6195 20.9716L10.6338 20.9726L10.6227 20.9719L10.6195 20.9716ZM12.1708 20.9719L12.1597 20.9726L12.174 20.9716L12.1708 20.9719ZM10.5798 20.9686L10.5924 20.9696L10.5893 20.9694L10.5798 20.9686ZM12.2041 20.9694L12.2011 20.9696L12.2136 20.9686L12.2041 20.9694ZM12.2374 20.9668L12.2314 20.9672L12.2442 20.9662L12.2374 20.9668ZM10.5493 20.9662L10.5621 20.9672L10.5561 20.9668L10.5493 20.9662ZM10.5196 20.9638L10.5304 20.9647L10.5228 20.9641L10.5196 20.9638ZM12.2707 20.9641L12.2631 20.9647L12.2739 20.9638L12.2707 20.9641ZM10.4868 20.961L10.4901 20.9613L10.4895 20.9613L10.4868 20.961ZM12.3039 20.9613L12.3034 20.9613L12.3066 20.961L12.3039 20.9613ZM12.3371 20.9584L12.3342 20.9586L12.3416 20.958L12.3371 20.9584ZM10.4519 20.958L10.4593 20.9586L10.4563 20.9584L10.4519 20.958ZM10.4211 20.9552L10.4266 20.9557L10.4232 20.9554L10.4211 20.9552ZM12.3703 20.9554L12.3668 20.9557L12.3724 20.9552L12.3703 20.9554ZM9.7561 20.8723C4.73911 20.0838 0.896729 15.737 0.896729 10.5C0.896729 4.7049 5.60163 0 11.3967 0C17.1918 0 21.8967 4.7049 21.8967 10.5C21.8967 15.737 18.0543 20.0838 13.0374 20.8723V13.5352H15.4839L15.9495 10.5H13.0374V8.53039C13.0374 7.70003 13.4441 6.89063 14.7485 6.89063H16.0725V4.30664C16.0725 4.30664 14.8709 4.10156 13.7221 4.10156C11.3237 4.10156 9.7561 5.55516 9.7561 8.18672V10.5H7.09009V13.5352H9.7561V20.8723Z" fill="white"/>
</g>
<defs>
<clipPath id="clip0_43_36">
<rect width="21" height="21" fill="white" transform="translate(0.896851)"/>
</clipPath>
</defs>
</svg>
