<svg width="786" height="364" viewBox="0 0 786 364" fill="none" xmlns="http://www.w3.org/2000/svg">
<g filter="url(#filter0_f_3_11)">
<ellipse cx="393" cy="182" rx="390" ry="179" fill="#F8D0A1"/>
<path d="M781.717 182C781.717 230.624 738.721 275.056 668.237 307.406C597.864 339.706 500.554 359.717 393 359.717C285.446 359.717 188.137 339.706 117.764 307.406C47.2791 275.056 4.28289 230.624 4.28289 182C4.28289 133.376 47.2791 88.9444 117.764 56.5938C188.137 24.2944 285.446 4.28289 393 4.28289C500.554 4.28289 597.864 24.2944 668.237 56.5938C738.721 88.9444 781.717 133.376 781.717 182Z" stroke="#5C5444" stroke-width="2.56579"/>
</g>
<g filter="url(#filter1_f_3_11)">
<path d="M770.599 182C770.599 204.697 760.183 226.417 741.147 246.283C722.105 266.155 694.49 284.11 660.266 299.216C591.823 329.427 497.18 348.145 392.572 348.145C287.964 348.145 193.321 329.427 124.878 299.216C90.6548 284.11 63.0393 266.155 43.9972 246.283C24.9613 226.417 14.5458 204.697 14.5458 182C14.5458 159.304 24.9613 137.583 43.9972 117.717C63.0393 97.8448 90.6548 79.8903 124.878 64.784C193.321 34.573 287.964 15.8547 392.572 15.8547C497.18 15.8547 591.823 34.573 660.266 64.784C694.49 79.8903 722.105 97.8448 741.147 117.717C760.183 137.583 770.599 159.304 770.599 182Z" stroke="#5C5444" stroke-width="2.56579"/>
</g>
<g filter="url(#filter2_f_3_11)">
<path d="M752.21 181.277C752.21 202.408 742.251 222.61 724.093 241.062C705.932 259.518 679.61 276.177 647.017 290.187C581.833 318.204 491.722 335.555 392.145 335.555C292.567 335.555 202.456 318.204 137.273 290.187C104.679 276.177 78.3573 259.518 60.1961 241.062C42.0386 222.61 32.0788 202.408 32.0788 181.277C32.0788 160.146 42.0386 139.944 60.1961 121.492C78.3573 103.036 104.679 86.3761 137.273 72.3666C202.456 44.3489 292.567 26.9986 392.145 26.9986C491.722 26.9986 581.833 44.3489 647.017 72.3666C679.61 86.3761 705.932 103.036 724.093 121.492C742.251 139.944 752.21 160.146 752.21 181.277Z" stroke="#5C5444" stroke-width="1.71053"/>
</g>
<path d="M144.955 142.476C144.117 144.668 143.44 146.989 142.924 149.439C142.473 151.89 142.086 154.501 141.764 157.274C139.507 158.112 137.057 158.273 134.413 157.758C134.929 153.631 134.832 150.536 134.123 148.472C133.413 146.344 132.22 144.894 130.544 144.12C128.932 143.282 126.933 142.862 124.547 142.862C120.227 142.862 116.423 144.152 113.134 146.731C109.91 149.246 107.298 152.599 105.3 156.79C103.365 160.982 102.043 165.528 101.334 170.428C100.625 175.2 100.689 179.584 101.527 183.582C102.43 187.516 104.203 190.675 106.847 193.061C109.555 195.447 113.295 196.64 118.067 196.64C120.84 196.64 123.612 196.253 126.385 195.479C129.158 194.705 131.963 193.545 134.8 191.997C135.445 192.642 135.896 193.416 136.154 194.318C136.476 195.221 136.67 196.188 136.734 197.22C133.317 199.606 129.738 201.379 125.998 202.54C122.258 203.636 118.228 204.184 113.908 204.184C107.073 204.184 101.398 202.701 96.8848 199.735C92.4356 196.704 89.276 192.61 87.4061 187.451C85.6006 182.293 85.2137 176.425 86.2454 169.848C87.0837 164.238 88.7279 159.37 91.1782 155.243C93.6285 151.116 96.6269 147.698 100.173 144.99C103.72 142.282 107.556 140.283 111.683 138.994C115.874 137.704 120.034 137.059 124.16 137.059C128.158 137.059 131.834 137.478 135.187 138.316C138.54 139.155 141.796 140.541 144.955 142.476ZM188.192 158.144C188.902 158.596 189.417 159.144 189.74 159.789C190.127 160.434 190.32 161.336 190.32 162.497C190.32 163.593 190.095 165.108 189.643 167.043L185.001 187.258C184.291 190.675 183.969 192.868 184.033 193.835C184.098 194.802 184.581 195.286 185.484 195.286C186.129 195.286 186.742 195.124 187.322 194.802C187.967 194.48 188.74 193.931 189.643 193.158C190.224 193.738 190.739 194.48 191.191 195.382C191.642 196.221 191.964 197.091 192.158 197.994C190.288 199.928 188.257 201.444 186.064 202.54C183.872 203.636 181.486 204.184 178.907 204.184C176.973 204.184 175.425 203.829 174.264 203.12C173.104 202.346 172.266 201.347 171.75 200.122C171.234 198.897 170.976 197.575 170.976 196.156C170.976 194.737 171.105 193.383 171.363 192.094C171.556 191.256 171.782 190.385 172.04 189.482C172.362 188.58 172.685 187.677 173.007 186.774C173.394 185.807 173.781 184.872 174.168 183.969L177.36 167.72L173.684 159.595C176.392 159.66 178.972 159.595 181.422 159.402C183.872 159.144 186.129 158.725 188.192 158.144ZM181.035 159.789L176.779 165.592C175.941 165.141 174.877 164.818 173.587 164.625C172.362 164.367 171.234 164.238 170.202 164.238C167.043 164.238 164.56 165.592 162.755 168.3C160.949 170.944 159.627 174.361 158.789 178.553C157.757 183.518 157.467 187.29 157.918 189.869C158.37 192.448 159.498 193.738 161.304 193.738C162.4 193.738 163.786 192.932 165.463 191.32C167.139 189.708 168.816 187.225 170.492 183.872C172.169 180.455 173.587 176.102 174.748 170.815L176.586 163.077L180.261 163.754L175.522 184.84H173.587C172.169 188.708 170.46 192.094 168.461 194.995C166.462 197.897 164.238 200.154 161.787 201.766C159.402 203.378 156.79 204.184 153.953 204.184C151.374 204.184 149.278 203.604 147.666 202.443C146.118 201.282 144.958 199.67 144.184 197.607C143.475 195.543 143.12 193.19 143.12 190.546C143.12 187.902 143.41 185.13 143.991 182.228C144.893 177.714 146.505 173.652 148.827 170.041C151.212 166.366 154.308 163.464 158.112 161.336C161.981 159.208 166.494 158.144 171.653 158.144C173.523 158.144 175.264 158.306 176.876 158.628C178.488 158.95 179.874 159.337 181.035 159.789ZM232.564 134.254C235.208 134.254 237.497 134.448 239.431 134.835C241.366 135.221 242.817 135.705 243.784 136.285C243.333 137.446 242.913 138.8 242.527 140.348C242.204 141.895 241.914 143.475 241.656 145.087C241.398 146.635 241.269 148.053 241.269 149.343C240.818 149.536 240.173 149.73 239.335 149.923C238.561 150.052 237.69 150.149 236.723 150.213C235.82 150.278 234.982 150.31 234.208 150.31C234.208 148.505 234.047 146.828 233.725 145.28C233.467 143.733 233.048 142.508 232.467 141.605C231.887 140.638 230.984 140.154 229.759 140.154C228.47 140.154 227.341 140.702 226.374 141.798C225.407 142.895 224.504 144.861 223.666 147.698C222.828 150.536 221.893 154.63 220.861 159.982C219.7 166.108 218.733 171.589 217.959 176.425C217.185 181.261 216.476 185.581 215.831 189.386C215.058 194.609 213.865 199.509 212.253 204.087C210.705 208.665 208.803 212.695 206.546 216.177C204.354 219.659 201.839 222.368 199.002 224.302C196.165 226.301 193.069 227.3 189.716 227.3C187.975 227.3 186.267 226.946 184.59 226.237C182.914 225.592 181.398 224.56 180.044 223.141C179.98 221.916 180.109 220.53 180.431 218.982C180.689 217.499 181.044 216.21 181.495 215.114C183.043 215.758 184.719 216.21 186.525 216.468C188.33 216.79 190.168 216.951 192.038 216.951C193.392 216.951 194.52 216.758 195.423 216.371C196.39 216.049 197.196 215.275 197.841 214.05C198.486 212.889 199.066 211.083 199.582 208.633C200.162 206.183 200.711 202.927 201.226 198.864C201.807 193.964 202.484 188.225 203.258 181.648C204.096 175.006 205.192 167.591 206.546 159.402C207.255 155.275 208.255 151.664 209.544 148.569C210.899 145.409 212.607 142.766 214.671 140.638C216.799 138.51 219.313 136.93 222.215 135.898C225.117 134.802 228.566 134.254 232.564 134.254ZM199.292 159.982H207.32L206.933 167.14C205.321 166.688 203.741 166.366 202.194 166.172C200.646 165.914 199.26 165.785 198.035 165.785C198.035 164.754 198.131 163.722 198.325 162.69C198.518 161.594 198.841 160.691 199.292 159.982ZM219.313 159.982H230.049C230.049 161.078 229.985 162.175 229.856 163.271C229.791 164.367 229.598 165.27 229.276 165.979C227.406 165.979 225.6 166.076 223.859 166.269C222.183 166.463 220.538 166.753 218.926 167.14L219.313 159.982ZM245.498 204.184C241.888 204.184 238.954 203.539 236.697 202.25C234.504 200.96 232.892 199.219 231.861 197.027C230.829 194.77 230.249 192.287 230.12 189.579C230.055 186.871 230.281 184.098 230.797 181.261C231.764 176.36 233.505 172.201 236.02 168.784C238.534 165.302 241.533 162.658 245.015 160.853C248.561 159.047 252.366 158.144 256.428 158.144C259.717 158.144 262.393 158.693 264.456 159.789C266.519 160.885 267.97 162.336 268.808 164.141C269.647 165.882 269.84 167.784 269.389 169.848C269.002 171.782 268.035 173.652 266.487 175.458C265.004 177.263 263.07 178.907 260.684 180.39C258.362 181.809 255.686 182.97 252.656 183.872C249.69 184.711 246.595 185.162 243.371 185.227L243.661 179.617C247.659 179.488 251.076 178.649 253.913 177.102C256.815 175.49 258.556 173.33 259.136 170.622C259.523 168.623 259.362 167.043 258.653 165.882C258.008 164.722 256.815 164.141 255.074 164.141C253.139 164.141 251.27 165.302 249.464 167.623C247.659 169.88 246.304 173.491 245.402 178.456C244.886 181.358 244.628 184.13 244.628 186.774C244.692 189.353 245.273 191.449 246.369 193.061C247.53 194.673 249.4 195.479 251.979 195.479C253.849 195.479 255.654 195.124 257.395 194.415C259.201 193.641 260.845 192.61 262.328 191.32C262.973 192.094 263.424 192.932 263.682 193.835C264.005 194.673 264.166 195.64 264.166 196.736C261.651 199.122 258.911 200.96 255.944 202.25C253.043 203.539 249.561 204.184 245.498 204.184ZM259.233 134.157C261.683 133.642 264.069 133.513 266.39 133.771C268.712 134.028 270.549 134.577 271.903 135.415C269.131 137.93 266.487 140.638 263.972 143.539C261.458 146.377 259.201 149.214 257.202 152.051C254.945 151.793 252.946 151.084 251.205 149.923C252.366 148.053 253.462 146.151 254.494 144.217C255.525 142.282 256.46 140.444 257.298 138.703C258.137 136.962 258.782 135.447 259.233 134.157ZM314.339 188.708C313.824 191.417 313.695 193.416 313.952 194.705C314.275 195.995 314.92 196.801 315.887 197.123C316.919 197.446 318.24 197.607 319.853 197.607C323.206 197.607 326.172 196.511 328.751 194.318C331.395 192.126 333.039 189.16 333.684 185.42C334.651 180.584 334.006 177.231 331.749 175.361C329.492 173.491 325.462 172.556 319.659 172.556H314.533L315.597 166.269H321.11C325.237 166.269 328.622 165.205 331.266 163.077C333.909 160.885 335.586 157.887 336.295 154.082C337.004 150.6 336.456 147.989 334.651 146.248C332.91 144.442 330.331 143.539 326.913 143.539C325.817 143.539 324.785 143.668 323.818 143.926C322.915 144.184 321.884 144.539 320.723 144.99L322.464 141.412L314.339 188.708ZM311.438 137.93C313.888 137.93 316.693 137.897 319.853 137.833C323.077 137.704 326.268 137.639 329.428 137.639C335.296 137.639 339.906 138.252 343.259 139.477C346.677 140.702 348.998 142.54 350.223 144.99C351.448 147.441 351.738 150.536 351.094 154.276C350.513 157.693 348.74 160.627 345.774 163.077C342.808 165.528 338.874 167.107 333.974 167.817C340.358 168.139 344.807 169.944 347.321 173.233C349.901 176.457 350.674 180.939 349.643 186.677C348.998 190.03 347.515 192.964 345.194 195.479C342.872 197.929 339.648 199.864 335.521 201.282C331.395 202.636 326.301 203.313 320.239 203.313C317.015 203.313 313.662 203.313 310.18 203.313C306.763 203.313 303.41 203.313 300.121 203.313C296.833 203.378 293.802 203.475 291.029 203.604C291.094 202.443 291.255 201.379 291.513 200.412C291.771 199.445 292.061 198.542 292.384 197.704C294.189 197.446 295.543 197.059 296.446 196.543C297.413 195.963 298.155 194.931 298.67 193.448C299.186 191.965 299.67 189.74 300.121 186.774L306.118 152.438C306.569 150.052 306.666 148.279 306.408 147.118C306.215 145.893 305.667 145.055 304.764 144.603C303.861 144.088 302.572 143.733 300.895 143.539C300.702 142.637 300.605 141.702 300.605 140.735C300.605 139.703 300.669 138.671 300.798 137.639C302.604 137.704 304.409 137.768 306.215 137.833C308.02 137.897 309.761 137.93 311.438 137.93ZM375.195 204.184C370.294 204.184 366.296 203.217 363.201 201.282C360.106 199.283 357.946 196.543 356.721 193.061C355.56 189.579 355.367 185.581 356.141 181.067C356.914 176.296 358.526 172.234 360.977 168.881C363.427 165.463 366.522 162.819 370.262 160.949C374.002 159.079 378.225 158.144 382.932 158.144C387.769 158.144 391.702 159.112 394.732 161.046C397.828 162.916 399.988 165.56 401.213 168.977C402.502 172.33 402.76 176.296 401.987 180.874C401.277 185.581 399.698 189.708 397.247 193.254C394.797 196.736 391.702 199.445 387.962 201.379C384.222 203.249 379.966 204.184 375.195 204.184ZM376.259 198.284C377.935 198.284 379.483 197.607 380.901 196.253C382.384 194.899 383.674 192.964 384.77 190.449C385.931 187.935 386.801 184.936 387.382 181.454C388.284 176.296 388.22 172.105 387.188 168.881C386.156 165.656 384.287 164.044 381.578 164.044C379.128 164.044 376.936 165.528 375.001 168.494C373.131 171.46 371.745 175.361 370.842 180.197C370.262 183.937 370.068 187.161 370.262 189.869C370.52 192.577 371.165 194.673 372.196 196.156C373.293 197.575 374.647 198.284 376.259 198.284ZM418.636 204.184C416.572 204.184 414.928 203.7 413.703 202.733C412.478 201.766 411.607 200.38 411.091 198.574C410.575 196.704 410.414 194.447 410.608 191.804C410.801 189.095 411.285 186.065 412.059 182.712C412.897 179.101 413.509 176.264 413.896 174.2C414.283 172.137 414.348 170.654 414.09 169.751C413.896 168.848 413.348 168.268 412.445 168.01C411.607 167.752 410.35 167.591 408.673 167.526C408.673 166.688 408.738 165.785 408.867 164.818C408.996 163.787 409.221 162.884 409.544 162.11C411.349 162.046 413.316 161.82 415.444 161.433C417.572 161.046 419.635 160.562 421.634 159.982C423.697 159.402 425.471 158.789 426.954 158.144C427.792 158.66 428.404 159.241 428.791 159.885C429.243 160.466 429.468 161.401 429.468 162.69C429.468 163.98 429.211 165.914 428.695 168.494C428.179 171.008 427.405 174.458 426.373 178.843C425.6 182.325 425.148 185.098 425.019 187.161C424.955 189.16 425.18 190.611 425.696 191.513C426.277 192.352 427.05 192.771 428.018 192.771C429.372 192.771 430.984 191.9 432.854 190.159C434.724 188.418 436.561 185.678 438.367 181.938C440.237 178.198 441.72 173.298 442.816 167.236L444.46 159.015H458.195L453.649 183.292C452.94 186.968 452.456 189.676 452.198 191.417C452.005 193.093 452.005 194.189 452.198 194.705C452.456 195.157 452.907 195.382 453.552 195.382C454.455 195.382 455.712 194.641 457.324 193.158C457.905 193.674 458.42 194.383 458.872 195.286C459.323 196.188 459.613 197.091 459.742 197.994C457.937 199.864 455.841 201.379 453.455 202.54C451.07 203.636 448.716 204.184 446.395 204.184C443.751 204.184 441.72 203.668 440.301 202.636C438.947 201.605 438.109 200.283 437.786 198.671C437.464 196.994 437.496 195.124 437.883 193.061C438.012 192.352 438.206 191.61 438.464 190.836C438.721 190.063 439.044 189.257 439.431 188.418H439.334C438.302 190.546 437.045 192.545 435.562 194.415C434.079 196.285 432.435 197.962 430.629 199.445C428.824 200.928 426.889 202.088 424.826 202.927C422.827 203.765 420.763 204.184 418.636 204.184ZM474.919 204.184C471.631 204.184 469.309 203.378 467.955 201.766C466.666 200.154 466.053 197.994 466.118 195.286C466.118 194.447 466.15 193.545 466.214 192.577C466.343 191.546 466.537 190.159 466.795 188.418C467.053 186.677 467.44 184.356 467.955 181.454C468.536 178.553 469.245 174.813 470.083 170.235C470.986 165.592 472.114 159.885 473.468 153.115C473.984 150.471 474.21 148.505 474.146 147.215C474.146 145.925 473.694 145.087 472.791 144.7C471.953 144.313 470.502 144.12 468.439 144.12C468.439 143.217 468.503 142.282 468.632 141.315C468.761 140.283 468.987 139.38 469.309 138.607C471.179 138.542 473.178 138.316 475.306 137.93C477.499 137.543 479.626 137.059 481.69 136.479C483.753 135.898 485.559 135.286 487.106 134.641C488.267 135.415 489.008 136.318 489.331 137.349C489.718 138.381 489.718 139.961 489.331 142.089C488.106 149.182 486.816 156.21 485.462 163.174C484.172 170.138 482.851 176.973 481.496 183.679C480.916 187.032 480.561 189.547 480.432 191.223C480.303 192.835 480.368 193.931 480.626 194.512C480.948 195.028 481.367 195.286 481.883 195.286C482.399 195.286 482.979 195.124 483.624 194.802C484.269 194.48 485.043 193.931 485.946 193.158C486.526 193.738 487.042 194.48 487.493 195.382C487.945 196.221 488.235 197.059 488.364 197.897C486.558 199.831 484.463 201.379 482.077 202.54C479.691 203.636 477.305 204.184 474.919 204.184ZM537.864 158.144C538.573 158.596 539.089 159.144 539.412 159.789C539.798 160.434 539.992 161.336 539.992 162.497C539.992 163.593 539.766 165.108 539.315 167.043L534.672 187.258C533.963 190.675 533.64 192.868 533.705 193.835C533.769 194.802 534.253 195.286 535.156 195.286C535.801 195.286 536.413 195.124 536.993 194.802C537.638 194.48 538.412 193.931 539.315 193.158C539.895 193.738 540.411 194.48 540.862 195.382C541.314 196.221 541.636 197.091 541.83 197.994C539.96 199.928 537.928 201.444 535.736 202.54C533.544 203.636 531.158 204.184 528.579 204.184C526.644 204.184 525.097 203.829 523.936 203.12C522.775 202.346 521.937 201.347 521.421 200.122C520.905 198.897 520.648 197.575 520.648 196.156C520.648 194.737 520.776 193.383 521.034 192.094C521.228 191.256 521.454 190.385 521.711 189.482C522.034 188.58 522.356 187.677 522.679 186.774C523.066 185.807 523.452 184.872 523.839 183.969L527.031 167.72L523.356 159.595C526.064 159.66 528.643 159.595 531.093 159.402C533.544 159.144 535.801 158.725 537.864 158.144ZM530.707 159.789L526.451 165.592C525.613 165.141 524.549 164.818 523.259 164.625C522.034 164.367 520.905 164.238 519.874 164.238C516.714 164.238 514.232 165.592 512.426 168.3C510.621 170.944 509.299 174.361 508.461 178.553C507.429 183.518 507.139 187.29 507.59 189.869C508.041 192.448 509.17 193.738 510.975 193.738C512.072 193.738 513.458 192.932 515.134 191.32C516.811 189.708 518.487 187.225 520.164 183.872C521.84 180.455 523.259 176.102 524.42 170.815L526.257 163.077L529.933 163.754L525.193 184.84H523.259C521.84 188.708 520.132 192.094 518.133 194.995C516.134 197.897 513.909 200.154 511.459 201.766C509.073 203.378 506.462 204.184 503.625 204.184C501.045 204.184 498.95 203.604 497.338 202.443C495.79 201.282 494.629 199.67 493.856 197.607C493.146 195.543 492.792 193.19 492.792 190.546C492.792 187.902 493.082 185.13 493.662 182.228C494.565 177.714 496.177 173.652 498.498 170.041C500.884 166.366 503.979 163.464 507.784 161.336C511.652 159.208 516.166 158.144 521.325 158.144C523.195 158.144 524.936 158.306 526.548 158.628C528.16 158.95 529.546 159.337 530.707 159.789ZM547.803 203.313L552.832 176.618C553.348 173.975 553.606 172.008 553.606 170.718C553.606 169.429 553.155 168.59 552.252 168.203C551.414 167.817 549.963 167.623 547.9 167.623C547.9 166.72 547.964 165.785 548.093 164.818C548.222 163.787 548.448 162.884 548.77 162.11C550.64 162.046 552.639 161.82 554.767 161.433C556.959 161.046 559.087 160.562 561.151 159.982C563.214 159.402 565.019 158.789 566.567 158.144C567.728 158.66 568.501 159.466 568.888 160.562C569.34 161.594 569.436 162.884 569.178 164.431C568.792 166.817 568.308 168.913 567.728 170.718C567.147 172.459 566.406 174.361 565.503 176.425L563.375 194.802L561.828 203.313H547.803ZM586.782 158.144C588.394 158.144 589.877 158.467 591.231 159.112C592.585 159.756 593.681 160.82 594.52 162.303C595.422 163.722 595.938 165.656 596.067 168.107C596.26 170.557 595.938 173.555 595.1 177.102L592.779 186.968C592.198 189.547 591.811 191.417 591.618 192.577C591.424 193.738 591.424 194.48 591.618 194.802C591.876 195.124 592.23 195.286 592.682 195.286C593.262 195.286 593.907 195.092 594.616 194.705C595.39 194.318 596.164 193.803 596.938 193.158C597.518 193.738 598.034 194.48 598.485 195.382C599.001 196.221 599.323 197.091 599.452 197.994C597.324 200.122 595.1 201.701 592.779 202.733C590.522 203.7 588.233 204.184 585.911 204.184C582.752 204.184 580.527 203.507 579.237 202.153C577.948 200.734 577.303 198.768 577.303 196.253C577.368 193.738 577.754 190.869 578.464 187.645L580.495 178.843C581.011 176.522 581.269 174.652 581.269 173.233C581.269 171.75 581.043 170.686 580.592 170.041C580.205 169.332 579.592 168.977 578.754 168.977C577.658 168.977 576.4 169.558 574.982 170.718C573.563 171.814 572.112 173.459 570.629 175.651C569.146 177.779 567.76 180.455 566.47 183.679C565.181 186.903 564.149 190.611 563.375 194.802L563.085 181.648L567.147 173.233C568.05 171.363 569.211 169.525 570.629 167.72C572.048 165.914 573.628 164.302 575.369 162.884C577.11 161.401 578.947 160.24 580.882 159.402C582.881 158.564 584.847 158.144 586.782 158.144ZM616.253 227.3C613.223 227.3 610.579 226.849 608.322 225.946C606.065 225.108 603.937 223.915 601.938 222.368C601.874 221.143 601.971 219.788 602.229 218.305C602.551 216.887 602.97 215.629 603.486 214.533C605.227 215.114 607.097 215.629 609.096 216.081C611.095 216.597 613.061 216.951 614.996 217.145C616.995 217.403 618.832 217.532 620.509 217.532C621.927 217.532 623.088 217.37 623.991 217.048C624.958 216.726 625.732 216.049 626.312 215.017C626.957 213.985 627.505 212.405 627.956 210.277C628.408 208.214 628.891 205.409 629.407 201.863C629.73 199.735 630.246 197.413 630.955 194.899C631.664 192.384 632.599 189.643 633.76 186.677L634.727 184.163L637.919 165.689L633.663 159.692C637.403 159.692 640.401 159.563 642.658 159.305C644.915 159.047 646.72 158.66 648.075 158.144C649.106 158.789 649.751 159.628 650.009 160.659C650.267 161.626 650.235 163.109 649.912 165.108L645.27 191.804C644.367 196.769 643.11 201.379 641.498 205.635C639.95 209.955 637.983 213.727 635.597 216.951C633.212 220.175 630.407 222.69 627.183 224.496C624.023 226.365 620.38 227.3 616.253 227.3ZM641.691 159.789L637.435 165.592C636.597 165.141 635.533 164.818 634.243 164.625C633.018 164.367 631.89 164.238 630.858 164.238C627.699 164.238 625.216 165.592 623.411 168.3C621.605 170.944 620.283 174.361 619.445 178.553C618.413 183.518 618.123 187.29 618.574 189.869C619.026 192.448 620.154 193.738 621.96 193.738C623.056 193.738 624.442 192.932 626.119 191.32C627.795 189.708 629.472 187.225 631.148 183.872C632.825 180.455 634.243 176.102 635.404 170.815L637.242 163.077L640.917 163.754L636.178 184.84H634.243C632.825 188.708 631.116 192.094 629.117 194.995C627.118 197.897 624.894 200.154 622.443 201.766C620.058 203.378 617.446 204.184 614.609 204.184C612.03 204.184 609.934 203.604 608.322 202.443C606.774 201.282 605.614 199.67 604.84 197.607C604.131 195.543 603.776 193.19 603.776 190.546C603.776 187.902 604.066 185.13 604.647 182.228C605.549 177.714 607.161 173.652 609.483 170.041C611.868 166.366 614.964 163.464 618.768 161.336C622.637 159.208 627.15 158.144 632.309 158.144C634.179 158.144 635.92 158.306 637.532 158.628C639.144 158.95 640.53 159.337 641.691 159.789ZM669.884 204.184C666.273 204.184 663.339 203.539 661.082 202.25C658.89 200.96 657.278 199.219 656.246 197.027C655.214 194.77 654.634 192.287 654.505 189.579C654.441 186.871 654.666 184.098 655.182 181.261C656.149 176.36 657.89 172.201 660.405 168.784C662.92 165.302 665.918 162.658 669.4 160.853C672.947 159.047 676.751 158.144 680.813 158.144C684.102 158.144 686.778 158.693 688.841 159.789C690.905 160.885 692.356 162.336 693.194 164.141C694.032 165.882 694.226 167.784 693.774 169.848C693.387 171.782 692.42 173.652 690.872 175.458C689.389 177.263 687.455 178.907 685.069 180.39C682.748 181.809 680.072 182.97 677.041 183.872C674.075 184.711 670.98 185.162 667.756 185.227L668.046 179.617C672.044 179.488 675.461 178.649 678.299 177.102C681.2 175.49 682.941 173.33 683.522 170.622C683.909 168.623 683.747 167.043 683.038 165.882C682.393 164.722 681.2 164.141 679.459 164.141C677.525 164.141 675.655 165.302 673.849 167.623C672.044 169.88 670.69 173.491 669.787 178.456C669.271 181.358 669.013 184.13 669.013 186.774C669.078 189.353 669.658 191.449 670.754 193.061C671.915 194.673 673.785 195.479 676.364 195.479C678.234 195.479 680.04 195.124 681.781 194.415C683.586 193.641 685.23 192.61 686.713 191.32C687.358 192.094 687.81 192.932 688.068 193.835C688.39 194.673 688.551 195.64 688.551 196.736C686.036 199.122 683.296 200.96 680.33 202.25C677.428 203.539 673.946 204.184 669.884 204.184Z" fill="#5C5444"/>
<line y1="-1.9167" x2="74.5577" y2="-1.9167" transform="matrix(0.999999 -0.00154381 0.00153826 0.999999 97.7845 217.688)" stroke="#5C5444" stroke-width="3.83339"/>
<line x1="647.493" y1="215.772" x2="689.66" y2="215.772" stroke="#5C5444" stroke-width="3.83339"/>
<line x1="224.286" y1="215.772" x2="580.792" y2="215.772" stroke="#5C5444" stroke-width="3.83339"/>
<defs>
<filter id="filter0_f_3_11" x="0.434211" y="0.434211" width="785.132" height="363.132" filterUnits="userSpaceOnUse" color-interpolation-filters="sRGB">
<feFlood flood-opacity="0" result="BackgroundImageFix"/>
<feBlend mode="normal" in="SourceGraphic" in2="BackgroundImageFix" result="shape"/>
<feGaussianBlur stdDeviation="1.28289" result="effect1_foregroundBlur_3_11"/>
</filter>
<filter id="filter1_f_3_11" x="10.6971" y="12.006" width="763.75" height="339.988" filterUnits="userSpaceOnUse" color-interpolation-filters="sRGB">
<feFlood flood-opacity="0" result="BackgroundImageFix"/>
<feBlend mode="normal" in="SourceGraphic" in2="BackgroundImageFix" result="shape"/>
<feGaussianBlur stdDeviation="1.28289" result="effect1_foregroundBlur_3_11"/>
</filter>
<filter id="filter2_f_3_11" x="30.3682" y="25.288" width="723.553" height="311.977" filterUnits="userSpaceOnUse" color-interpolation-filters="sRGB">
<feFlood flood-opacity="0" result="BackgroundImageFix"/>
<feBlend mode="normal" in="SourceGraphic" in2="BackgroundImageFix" result="shape"/>
<feGaussianBlur stdDeviation="0.427632" result="effect1_foregroundBlur_3_11"/>
</filter>
</defs>
</svg>
