<svg width="365" height="69" viewBox="0 0 365 69" fill="none" xmlns="http://www.w3.org/2000/svg">
<path d="M37.6373 18.2928C37.1453 19.5796 36.7479 20.942 36.4452 22.3801C36.1802 23.8183 35.9532 25.351 35.7639 26.9784C34.4394 27.4703 33.0012 27.565 31.4496 27.2622C31.7523 24.8401 31.6956 23.0235 31.2793 21.8125C30.863 20.5636 30.1628 19.712 29.1788 19.2579C28.2327 18.7659 27.0595 18.5199 25.6592 18.5199C23.1236 18.5199 20.8907 19.2768 18.9606 20.7906C17.0683 22.2666 15.5356 24.2346 14.3623 26.6945C13.227 29.1545 12.4511 31.8226 12.0349 34.6988C11.6186 37.4994 11.6564 40.0729 12.1484 42.4193C12.6782 44.7279 13.719 46.5823 15.2706 47.9826C16.8601 49.3829 19.0552 50.083 21.8557 50.083C23.4831 50.083 25.1105 49.8559 26.7378 49.4018C28.3652 48.9476 30.0114 48.2664 31.6766 47.3581C32.0551 47.7366 32.32 48.1907 32.4714 48.7206C32.6606 49.2504 32.7742 49.8181 32.812 50.4236C30.8062 51.8239 28.7058 52.8646 26.5107 53.5459C24.3157 54.1892 21.9504 54.5109 19.4147 54.5109C15.4031 54.5109 12.0727 53.6405 9.42351 51.8996C6.81218 50.1208 4.95775 47.7177 3.86023 44.69C2.80056 41.6624 2.57349 38.2185 3.17902 34.3582C3.67101 31.0657 4.63607 28.2083 6.07419 25.7862C7.51232 23.3641 9.27213 21.3583 11.3536 19.7688C13.4351 18.1793 15.6869 17.0061 18.109 16.2492C20.569 15.4923 23.01 15.1138 25.4321 15.1138C27.7786 15.1138 29.9357 15.3598 31.9037 15.8518C33.8717 16.3438 35.7829 17.1575 37.6373 18.2928ZM63.014 27.4893C63.4303 27.7542 63.733 28.0759 63.9223 28.4543C64.1493 28.8328 64.2629 29.3626 64.2629 30.0438C64.2629 30.6872 64.1304 31.5766 63.8655 32.7119L61.1406 44.5765C60.7243 46.5823 60.5351 47.869 60.573 48.4367C60.6108 49.0044 60.8946 49.2882 61.4245 49.2882C61.8029 49.2882 62.1625 49.1936 62.5031 49.0044C62.8815 48.8152 63.3357 48.4935 63.8655 48.0393C64.2061 48.38 64.5089 48.8152 64.7738 49.345C65.0387 49.837 65.2279 50.3479 65.3415 50.8778C64.244 52.0131 63.0518 52.9025 61.7651 53.5459C60.4783 54.1892 59.0781 54.5109 57.5642 54.5109C56.4289 54.5109 55.5206 54.3028 54.8394 53.8865C54.1582 53.4323 53.6662 52.8457 53.3634 52.1267C53.0606 51.4076 52.9093 50.6318 52.9093 49.7992C52.9093 48.9666 52.9849 48.1718 53.1363 47.4149C53.2499 46.9229 53.3823 46.412 53.5337 45.8822C53.7229 45.3523 53.9122 44.8225 54.1014 44.2926C54.3285 43.725 54.5555 43.1762 54.7826 42.6464L56.656 33.1093L54.4988 28.3408C56.0883 28.3786 57.6021 28.3408 59.0402 28.2273C60.4783 28.0759 61.8029 27.8299 63.014 27.4893ZM58.8131 28.4543L56.3153 31.8604C55.8234 31.5955 55.1989 31.4063 54.442 31.2927C53.7229 31.1414 53.0606 31.0657 52.4551 31.0657C50.6007 31.0657 49.1436 31.8604 48.084 33.4499C47.0243 35.0016 46.2485 37.0074 45.7565 39.4674C45.1509 42.3814 44.9806 44.5954 45.2456 46.1092C45.5105 47.623 46.1728 48.38 47.2324 48.38C47.8758 48.38 48.6895 47.9069 49.6735 46.9607C50.6574 46.0146 51.6414 44.5576 52.6254 42.5896C53.6094 40.5838 54.442 38.0292 55.1232 34.9259L56.2018 30.3844L58.359 30.7818L55.5774 43.1573H54.442C53.6094 45.428 52.6065 47.4149 51.4333 49.1179C50.2601 50.821 48.9544 52.1456 47.5163 53.0917C46.116 54.0378 44.5833 54.5109 42.9181 54.5109C41.4042 54.5109 40.1743 54.1703 39.2281 53.4891C38.3198 52.8079 37.6386 51.8617 37.1845 50.6507C36.7682 49.4396 36.56 48.0583 36.56 46.5066C36.56 44.9549 36.7303 43.3276 37.0709 41.6245C37.6008 38.9754 38.5469 36.5911 39.9093 34.4718C41.3096 32.3146 43.1262 30.6115 45.3591 29.3626C47.6298 28.1137 50.279 27.4893 53.3066 27.4893C54.4041 27.4893 55.426 27.5839 56.3721 27.7731C57.3182 27.9623 58.1319 28.1894 58.8131 28.4543ZM89.0568 13.4675C90.6085 13.4675 91.952 13.5811 93.0874 13.8081C94.2227 14.0352 95.0742 14.3191 95.6419 14.6597C95.377 15.3409 95.131 16.1356 94.9039 17.0439C94.7147 17.9522 94.5444 18.8794 94.393 19.8256C94.2416 20.7339 94.166 21.5665 94.166 22.3234C93.901 22.4369 93.5226 22.5504 93.0306 22.664C92.5764 22.7397 92.0655 22.7964 91.4979 22.8343C90.968 22.8721 90.476 22.891 90.0219 22.891C90.0219 21.8314 89.9273 20.8474 89.738 19.9391C89.5867 19.0308 89.3407 18.3118 89.0001 17.7819C88.6594 17.2142 88.1296 16.9304 87.4105 16.9304C86.6536 16.9304 85.9913 17.2521 85.4237 17.8954C84.856 18.5388 84.3261 19.6931 83.8342 21.3583C83.3422 23.0235 82.7934 25.4267 82.1879 28.5679C81.5067 32.1632 80.939 35.38 80.4848 38.2185C80.0307 41.0569 79.6144 43.5925 79.2359 45.8254C78.7818 48.8909 78.0816 51.7671 77.1355 54.4541C76.2272 57.1412 75.1108 59.5065 73.7862 61.5502C72.4994 63.5938 71.0235 65.1833 69.3583 66.3187C67.6931 67.4919 65.8765 68.0785 63.9085 68.0785C62.8867 68.0785 61.8838 67.8704 60.8998 67.4541C59.9158 67.0756 59.0265 66.4701 58.2317 65.6375C58.1939 64.9184 58.2696 64.1047 58.4588 63.1964C58.6102 62.326 58.8183 61.5691 59.0832 60.9257C59.9915 61.3042 60.9755 61.5691 62.0352 61.7205C63.0948 61.9097 64.1734 62.0043 65.271 62.0043C66.0657 62.0043 66.728 61.8908 67.2578 61.6637C67.8255 61.4745 68.2986 61.0203 68.6771 60.3013C69.0555 59.62 69.3961 58.5604 69.6989 57.1222C70.0395 55.6841 70.3612 53.7729 70.6639 51.3887C71.0045 48.5124 71.4019 45.1442 71.8561 41.2839C72.3481 37.3859 72.9914 33.0336 73.7862 28.2273C74.2025 25.8051 74.7891 23.6858 75.546 21.8692C76.3408 20.0148 77.3437 18.4631 78.5547 17.2142C79.8036 15.9653 81.2796 15.0381 82.9826 14.4326C84.6857 13.7892 86.7104 13.4675 89.0568 13.4675ZM69.5286 28.5679H74.2403L74.0133 32.7687C73.0671 32.5038 72.1399 32.3146 71.2316 32.201C70.3233 32.0496 69.5097 31.974 68.7906 31.974C68.7906 31.3684 68.8474 30.7629 68.9609 30.1574C69.0744 29.514 69.2637 28.9842 69.5286 28.5679ZM81.2796 28.5679H87.5808C87.5808 29.2112 87.543 29.8546 87.4673 30.498C87.4295 31.1414 87.3159 31.6712 87.1267 32.0875C86.0292 32.0875 84.9695 32.1443 83.9477 32.2578C82.9637 32.3713 81.9986 32.5416 81.0525 32.7687L81.2796 28.5679ZM96.6482 54.5109C94.5289 54.5109 92.8069 54.1325 91.4823 53.3756C90.1956 52.6186 89.2495 51.5968 88.6439 50.3101C88.0384 48.9855 87.6978 47.5284 87.6221 45.9389C87.5843 44.3494 87.7167 42.7221 88.0195 41.0569C88.5872 38.1806 89.609 35.7396 91.085 33.7338C92.5609 31.6901 94.3207 30.1385 96.3644 29.0788C98.4459 28.0191 100.679 27.4893 103.063 27.4893C104.993 27.4893 106.564 27.811 107.775 28.4543C108.986 29.0977 109.837 29.9492 110.329 31.0089C110.821 32.0307 110.935 33.1472 110.67 34.3582C110.443 35.4936 109.875 36.5911 108.967 37.6508C108.096 38.7104 106.961 39.6755 105.561 40.5459C104.198 41.3785 102.628 42.0598 100.849 42.5896C99.1082 43.0816 97.2916 43.3465 95.3993 43.3844L95.5696 40.0918C97.9161 40.0161 99.9219 39.5241 101.587 38.6158C103.29 37.6697 104.312 36.4019 104.653 34.8124C104.88 33.6392 104.785 32.7119 104.369 32.0307C103.99 31.3495 103.29 31.0089 102.268 31.0089C101.133 31.0089 100.035 31.6901 98.9757 33.0525C97.9161 34.3771 97.1213 36.4965 96.5915 39.4106C96.2887 41.1136 96.1373 42.741 96.1373 44.2926C96.1752 45.8065 96.5158 47.0364 97.1591 47.9826C97.8404 48.9287 98.9379 49.4018 100.452 49.4018C101.549 49.4018 102.609 49.1936 103.631 48.7773C104.69 48.3232 105.655 47.7177 106.526 46.9607C106.904 47.4149 107.169 47.9069 107.321 48.4367C107.51 48.9287 107.604 49.4964 107.604 50.1398C106.129 51.54 104.52 52.6186 102.779 53.3756C101.076 54.1325 99.0325 54.5109 96.6482 54.5109ZM104.709 13.4108C106.147 13.108 107.548 13.0323 108.91 13.1837C110.273 13.3351 111.351 13.6568 112.146 14.1488C110.519 15.6247 108.967 17.2142 107.491 18.9173C106.015 20.5825 104.69 22.2477 103.517 23.9129C102.193 23.7615 101.019 23.3452 99.9976 22.664C100.679 21.5665 101.322 20.45 101.928 19.3147C102.533 18.1793 103.082 17.1007 103.574 16.0789C104.066 15.057 104.444 14.1677 104.709 13.4108ZM137.053 45.428C136.75 47.0175 136.674 48.1907 136.825 48.9476C137.015 49.7045 137.393 50.1776 137.961 50.3668C138.566 50.5561 139.342 50.6507 140.288 50.6507C142.256 50.6507 143.997 50.0073 145.511 48.7206C147.063 47.4338 148.028 45.6929 148.406 43.4979C148.974 40.6595 148.595 38.6915 147.271 37.594C145.946 36.4965 143.581 35.9477 140.175 35.9477H137.166L137.791 32.2578H141.026C143.448 32.2578 145.435 31.6333 146.987 30.3844C148.539 29.0977 149.523 27.3379 149.939 25.105C150.355 23.0614 150.034 21.5286 148.974 20.5068C147.952 19.4471 146.438 18.9173 144.432 18.9173C143.789 18.9173 143.183 18.993 142.616 19.1443C142.086 19.2957 141.48 19.5039 140.799 19.7688L141.821 17.6684L137.053 45.428ZM135.349 15.6247C136.788 15.6247 138.434 15.6058 140.288 15.568C142.181 15.4923 144.054 15.4544 145.908 15.4544C149.352 15.4544 152.058 15.814 154.026 16.533C156.032 17.2521 157.394 18.3307 158.114 19.7688C158.833 21.2069 159.003 23.0235 158.624 25.2185C158.284 27.2244 157.243 28.9463 155.502 30.3844C153.761 31.8226 151.453 32.7498 148.576 33.1661C152.323 33.3553 154.934 34.415 156.41 36.3451C157.924 38.2374 158.378 40.8676 157.773 44.2359C157.394 46.2038 156.524 47.9258 155.162 49.4018C153.799 50.8399 151.907 51.9753 149.485 52.8079C147.063 53.6026 144.073 54 140.515 54C138.623 54 136.655 54 134.611 54C132.606 54 130.638 54 128.708 54C126.777 54.0378 124.999 54.0946 123.371 54.1703C123.409 53.4891 123.504 52.8646 123.655 52.297C123.807 51.7293 123.977 51.1994 124.166 50.7074C125.226 50.5561 126.021 50.329 126.55 50.0262C127.118 49.6856 127.553 49.0801 127.856 48.2096C128.159 47.3392 128.443 46.0335 128.708 44.2926L132.227 24.1399C132.492 22.7397 132.549 21.6989 132.398 21.0177C132.284 20.2986 131.962 19.8066 131.432 19.5417C130.903 19.239 130.146 19.0308 129.162 18.9173C129.048 18.3874 128.991 17.8387 128.991 17.271C128.991 16.6655 129.029 16.0599 129.105 15.4544C130.165 15.4923 131.224 15.5301 132.284 15.568C133.344 15.6058 134.366 15.6247 135.349 15.6247ZM172.77 54.5109C169.894 54.5109 167.547 53.9432 165.731 52.8079C163.914 51.6347 162.646 50.0262 161.927 47.9826C161.246 45.9389 161.132 43.5925 161.587 40.9433C162.041 38.1428 162.987 35.7585 164.425 33.7905C165.863 31.7847 167.68 30.2331 169.875 29.1355C172.07 28.038 174.549 27.4893 177.311 27.4893C180.15 27.4893 182.458 28.057 184.237 29.1923C186.054 30.2898 187.321 31.8415 188.041 33.8473C188.797 35.8153 188.949 38.1428 188.495 40.8298C188.078 43.5925 187.151 46.0146 185.713 48.0961C184.275 50.1398 182.458 51.7293 180.263 52.8646C178.068 53.9622 175.57 54.5109 172.77 54.5109ZM173.394 51.0481C174.378 51.0481 175.287 50.6507 176.119 49.8559C176.99 49.0612 177.747 47.9258 178.39 46.4498C179.071 44.9739 179.582 43.214 179.923 41.1704C180.453 38.1428 180.415 35.6828 179.809 33.7905C179.204 31.8983 178.106 30.9521 176.517 30.9521C175.078 30.9521 173.792 31.8226 172.656 33.5635C171.559 35.3044 170.745 37.594 170.215 40.4324C169.875 42.6274 169.761 44.5197 169.875 46.1092C170.026 47.6987 170.405 48.9287 171.01 49.7992C171.653 50.6318 172.448 51.0481 173.394 51.0481ZM198.266 54.5109C197.055 54.5109 196.09 54.2271 195.371 53.6594C194.652 53.0917 194.141 52.278 193.838 51.2184C193.536 50.1208 193.441 48.7963 193.555 47.2446C193.668 45.6551 193.952 43.8763 194.406 41.9084C194.898 39.789 195.258 38.1238 195.485 36.9128C195.712 35.7017 195.75 34.8313 195.598 34.3014C195.485 33.7716 195.163 33.431 194.633 33.2796C194.141 33.1282 193.403 33.0336 192.419 32.9958C192.419 32.5038 192.457 31.974 192.533 31.4063C192.608 30.8007 192.741 30.2709 192.93 29.8168C193.99 29.7789 195.144 29.6465 196.393 29.4194C197.642 29.1923 198.853 28.9085 200.026 28.5679C201.237 28.2273 202.278 27.8677 203.148 27.4893C203.64 27.792 204 28.1326 204.227 28.5111C204.492 28.8517 204.624 29.4005 204.624 30.1574C204.624 30.9143 204.473 32.0496 204.17 33.5635C203.867 35.0394 203.413 37.0642 202.808 39.6377C202.354 41.6813 202.089 43.3087 202.013 44.5197C201.975 45.6929 202.108 46.5444 202.41 47.0743C202.751 47.5663 203.205 47.8123 203.773 47.8123C204.568 47.8123 205.514 47.3014 206.611 46.2795C207.709 45.2577 208.787 43.6493 209.847 41.4542C210.945 39.2592 211.815 36.3829 212.458 32.8255L213.423 28.0002H221.485L218.816 42.249C218.4 44.4062 218.116 45.9957 217.965 47.0175C217.851 48.0015 217.851 48.6449 217.965 48.9476C218.116 49.2126 218.381 49.345 218.76 49.345C219.289 49.345 220.027 48.9098 220.974 48.0393C221.314 48.3421 221.617 48.7584 221.882 49.2882C222.147 49.8181 222.317 50.3479 222.393 50.8778C221.333 51.9753 220.103 52.8646 218.703 53.5459C217.303 54.1892 215.921 54.5109 214.559 54.5109C213.007 54.5109 211.815 54.2081 210.982 53.6026C210.188 52.9971 209.696 52.2213 209.506 51.2751C209.317 50.2911 209.336 49.1936 209.563 47.9826C209.639 47.5663 209.752 47.1311 209.904 46.6769C210.055 46.2228 210.244 45.7497 210.471 45.2577H210.415C209.809 46.5066 209.071 47.6798 208.201 48.7773C207.33 49.8748 206.365 50.8588 205.306 51.7293C204.246 52.5997 203.111 53.2809 201.899 53.7729C200.726 54.2649 199.515 54.5109 198.266 54.5109ZM231.301 54.5109C229.37 54.5109 228.008 54.0378 227.213 53.0917C226.456 52.1456 226.097 50.8778 226.135 49.2882C226.135 48.7963 226.154 48.2664 226.191 47.6987C226.267 47.0932 226.381 46.2795 226.532 45.2577C226.683 44.2359 226.91 42.8734 227.213 41.1704C227.554 39.4674 227.97 37.2723 228.462 34.5853C228.992 31.8604 229.654 28.5111 230.449 24.5373C230.752 22.9857 230.884 21.8314 230.846 21.0745C230.846 20.3176 230.581 19.8256 230.052 19.5985C229.56 19.3714 228.708 19.2579 227.497 19.2579C227.497 18.728 227.535 18.1793 227.611 17.6116C227.686 17.0061 227.819 16.4762 228.008 16.0221C229.105 15.9843 230.279 15.8518 231.528 15.6247C232.814 15.3976 234.063 15.1138 235.274 14.7732C236.485 14.4326 237.545 14.0731 238.453 13.6946C239.135 14.1488 239.57 14.6786 239.759 15.2841C239.986 15.8896 239.986 16.8169 239.759 18.0658C239.04 22.2288 238.283 26.3539 237.488 30.4412C236.731 34.5285 235.956 38.5401 235.161 42.4761C234.82 44.444 234.612 45.92 234.536 46.904C234.461 47.8501 234.498 48.4935 234.65 48.8341C234.839 49.1369 235.085 49.2882 235.388 49.2882C235.691 49.2882 236.031 49.1936 236.41 49.0044C236.788 48.8152 237.242 48.4935 237.772 48.0393C238.113 48.38 238.415 48.8152 238.68 49.345C238.945 49.837 239.116 50.329 239.191 50.821C238.132 51.9563 236.902 52.8646 235.501 53.5459C234.101 54.1892 232.701 54.5109 231.301 54.5109ZM268.244 27.4893C268.66 27.7542 268.963 28.0759 269.152 28.4543C269.38 28.8328 269.493 29.3626 269.493 30.0438C269.493 30.6872 269.361 31.5766 269.096 32.7119L266.371 44.5765C265.955 46.5823 265.765 47.869 265.803 48.4367C265.841 49.0044 266.125 49.2882 266.655 49.2882C267.033 49.2882 267.393 49.1936 267.733 49.0044C268.112 48.8152 268.566 48.4935 269.096 48.0393C269.436 48.38 269.739 48.8152 270.004 49.345C270.269 49.837 270.458 50.3479 270.572 50.8778C269.474 52.0131 268.282 52.9025 266.995 53.5459C265.709 54.1892 264.308 54.5109 262.794 54.5109C261.659 54.5109 260.751 54.3028 260.07 53.8865C259.388 53.4323 258.896 52.8457 258.594 52.1267C258.291 51.4076 258.139 50.6318 258.139 49.7992C258.139 48.9666 258.215 48.1718 258.367 47.4149C258.48 46.9229 258.613 46.412 258.764 45.8822C258.953 45.3523 259.142 44.8225 259.332 44.2926C259.559 43.725 259.786 43.1762 260.013 42.6464L261.886 33.1093L259.729 28.3408C261.318 28.3786 262.832 28.3408 264.27 28.2273C265.709 28.0759 267.033 27.8299 268.244 27.4893ZM264.043 28.4543L261.546 31.8604C261.054 31.5955 260.429 31.4063 259.672 31.2927C258.953 31.1414 258.291 31.0657 257.685 31.0657C255.831 31.0657 254.374 31.8604 253.314 33.4499C252.254 35.0016 251.479 37.0074 250.987 39.4674C250.381 42.3814 250.211 44.5954 250.476 46.1092C250.741 47.623 251.403 48.38 252.463 48.38C253.106 48.38 253.92 47.9069 254.904 46.9607C255.888 46.0146 256.872 44.5576 257.856 42.5896C258.84 40.5838 259.672 38.0292 260.353 34.9259L261.432 30.3844L263.589 30.7818L260.808 43.1573H259.672C258.84 45.428 257.837 47.4149 256.663 49.1179C255.49 50.821 254.185 52.1456 252.746 53.0917C251.346 54.0378 249.813 54.5109 248.148 54.5109C246.634 54.5109 245.404 54.1703 244.458 53.4891C243.55 52.8079 242.869 51.8617 242.415 50.6507C241.998 49.4396 241.79 48.0583 241.79 46.5066C241.79 44.9549 241.961 43.3276 242.301 41.6245C242.831 38.9754 243.777 36.5911 245.14 34.4718C246.54 32.3146 248.356 30.6115 250.589 29.3626C252.86 28.1137 255.509 27.4893 258.537 27.4893C259.634 27.4893 260.656 27.5839 261.602 27.7731C262.548 27.9623 263.362 28.1894 264.043 28.4543ZM274.078 54L277.03 38.332C277.332 36.7803 277.484 35.626 277.484 34.8691C277.484 34.1122 277.219 33.6202 276.689 33.3932C276.197 33.1661 275.345 33.0525 274.134 33.0525C274.134 32.5227 274.172 31.974 274.248 31.4063C274.324 30.8007 274.456 30.2709 274.645 29.8168C275.743 29.7789 276.916 29.6465 278.165 29.4194C279.452 29.1923 280.701 28.9085 281.912 28.5679C283.123 28.2273 284.182 27.8677 285.091 27.4893C285.772 27.792 286.226 28.2651 286.453 28.9085C286.718 29.514 286.775 30.2709 286.623 31.1792C286.396 32.5795 286.112 33.8095 285.772 34.8691C285.431 35.891 284.996 37.0074 284.466 38.2185L283.217 49.0044L282.309 54H274.078ZM296.955 27.4893C297.901 27.4893 298.772 27.6785 299.566 28.057C300.361 28.4354 301.005 29.0599 301.497 29.9303C302.026 30.7629 302.329 31.8983 302.405 33.3364C302.518 34.7745 302.329 36.5343 301.837 38.6158L300.475 44.4062C300.134 45.92 299.907 47.0175 299.794 47.6987C299.68 48.38 299.68 48.8152 299.794 49.0044C299.945 49.1936 300.153 49.2882 300.418 49.2882C300.759 49.2882 301.137 49.1747 301.553 48.9476C302.008 48.7206 302.462 48.4178 302.916 48.0393C303.256 48.38 303.559 48.8152 303.824 49.345C304.127 49.837 304.316 50.3479 304.392 50.8778C303.143 52.1267 301.837 53.0539 300.475 53.6594C299.15 54.2271 297.807 54.5109 296.444 54.5109C294.59 54.5109 293.284 54.1135 292.527 53.3188C291.77 52.4862 291.392 51.3319 291.392 49.8559C291.43 48.38 291.657 46.6958 292.073 44.8036L293.265 39.6377C293.568 38.2752 293.719 37.1777 293.719 36.3451C293.719 35.4747 293.587 34.8502 293.322 34.4718C293.095 34.0555 292.735 33.8473 292.243 33.8473C291.6 33.8473 290.862 34.1879 290.029 34.8691C289.197 35.5125 288.345 36.4776 287.475 37.7643C286.604 39.0132 285.791 40.5838 285.034 42.4761C284.277 44.3683 283.671 46.5444 283.217 49.0044L283.047 41.2839L285.431 36.3451C285.961 35.2476 286.642 34.169 287.475 33.1093C288.307 32.0496 289.235 31.1035 290.256 30.2709C291.278 29.4005 292.357 28.7192 293.492 28.2273C294.665 27.7353 295.82 27.4893 296.955 27.4893ZM314.253 68.0785C312.474 68.0785 310.922 67.8136 309.598 67.2837C308.273 66.7918 307.024 66.0916 305.851 65.1833C305.813 64.4643 305.87 63.6695 306.021 62.7991C306.21 61.9665 306.456 61.2285 306.759 60.5851C307.781 60.9257 308.879 61.2285 310.052 61.4934C311.225 61.7962 312.379 62.0043 313.515 62.1178C314.688 62.2692 315.766 62.3449 316.75 62.3449C317.583 62.3449 318.264 62.2503 318.794 62.0611C319.362 61.8719 319.816 61.4745 320.156 60.8689C320.535 60.2634 320.857 59.3362 321.122 58.0873C321.386 56.8763 321.67 55.23 321.973 53.1485C322.162 51.8996 322.465 50.5371 322.881 49.0612C323.298 47.5852 323.846 45.9768 324.528 44.2359L325.095 42.7599L326.969 31.9172L324.471 28.3976C326.666 28.3976 328.426 28.3219 329.75 28.1705C331.075 28.0191 332.135 27.792 332.929 27.4893C333.535 27.8677 333.913 28.3597 334.065 28.9652C334.216 29.5329 334.197 30.4034 334.008 31.5766L331.283 47.2446C330.753 50.1587 330.015 52.8646 329.069 55.3624C328.161 57.8981 327.006 60.112 325.606 62.0043C324.206 63.8966 322.56 65.3726 320.667 66.4322C318.813 67.5297 316.675 68.0785 314.253 68.0785ZM329.183 28.4543L326.685 31.8604C326.193 31.5955 325.568 31.4063 324.811 31.2927C324.092 31.1414 323.43 31.0657 322.825 31.0657C320.97 31.0657 319.513 31.8604 318.453 33.4499C317.394 35.0016 316.618 37.0074 316.126 39.4674C315.52 42.3814 315.35 44.5954 315.615 46.1092C315.88 47.623 316.542 48.38 317.602 48.38C318.245 48.38 319.059 47.9069 320.043 46.9607C321.027 46.0146 322.011 44.5576 322.995 42.5896C323.979 40.5838 324.811 38.0292 325.493 34.9259L326.571 30.3844L328.728 30.7818L325.947 43.1573H324.811C323.979 45.428 322.976 47.4149 321.803 49.1179C320.63 50.821 319.324 52.1456 317.886 53.0917C316.485 54.0378 314.953 54.5109 313.287 54.5109C311.774 54.5109 310.544 54.1703 309.598 53.4891C308.689 52.8079 308.008 51.8617 307.554 50.6507C307.138 49.4396 306.929 48.0583 306.929 46.5066C306.929 44.9549 307.1 43.3276 307.44 41.6245C307.97 38.9754 308.916 36.5911 310.279 34.4718C311.679 32.3146 313.496 30.6115 315.729 29.3626C317.999 28.1137 320.648 27.4893 323.676 27.4893C324.774 27.4893 325.795 27.5839 326.742 27.7731C327.688 27.9623 328.501 28.1894 329.183 28.4543ZM345.73 54.5109C343.61 54.5109 341.888 54.1325 340.564 53.3756C339.277 52.6186 338.331 51.5968 337.725 50.3101C337.12 48.9855 336.779 47.5284 336.703 45.9389C336.666 44.3494 336.798 42.7221 337.101 41.0569C337.669 38.1806 338.69 35.7396 340.166 33.7338C341.642 31.6901 343.402 30.1385 345.446 29.0788C347.527 28.0191 349.76 27.4893 352.144 27.4893C354.075 27.4893 355.645 27.811 356.856 28.4543C358.067 29.0977 358.919 29.9492 359.411 31.0089C359.903 32.0307 360.016 33.1472 359.751 34.3582C359.524 35.4936 358.957 36.5911 358.048 37.6508C357.178 38.7104 356.043 39.6755 354.642 40.5459C353.28 41.3785 351.709 42.0598 349.93 42.5896C348.19 43.0816 346.373 43.3465 344.481 43.3844L344.651 40.0918C346.997 40.0161 349.003 39.5241 350.668 38.6158C352.372 37.6697 353.393 36.4019 353.734 34.8124C353.961 33.6392 353.866 32.7119 353.45 32.0307C353.072 31.3495 352.372 31.0089 351.35 31.0089C350.214 31.0089 349.117 31.6901 348.057 33.0525C346.997 34.3771 346.203 36.4965 345.673 39.4106C345.37 41.1136 345.219 42.741 345.219 44.2926C345.257 45.8065 345.597 47.0364 346.241 47.9826C346.922 48.9287 348.019 49.4018 349.533 49.4018C350.631 49.4018 351.69 49.1936 352.712 48.7773C353.772 48.3232 354.737 47.7177 355.607 46.9607C355.986 47.4149 356.251 47.9069 356.402 48.4367C356.591 48.9287 356.686 49.4964 356.686 50.1398C355.21 51.54 353.601 52.6186 351.861 53.3756C350.158 54.1325 348.114 54.5109 345.73 54.5109Z" fill="#5C5444"/>
<line x1="9.94993" y1="61.1966" x2="53.7095" y2="61.1291" stroke="#5C5444" stroke-width="2.24991"/>
<line x1="332.588" y1="61.1966" x2="357.337" y2="61.1966" stroke="#5C5444" stroke-width="2.24991"/>
<line x1="84.1985" y1="61.1966" x2="293.44" y2="61.1966" stroke="#5C5444" stroke-width="2.24991"/>
</svg>
