<svg width="19" height="19" viewBox="0 0 19 19" fill="none" xmlns="http://www.w3.org/2000/svg">
<path d="M2.375 5.9375H16.625C17.2805 5.9375 17.8125 5.4055 17.8125 4.75C17.8125 4.0945 17.2805 3.5625 16.625 3.5625H2.375C1.7195 3.5625 1.1875 4.0945 1.1875 4.75C1.1875 5.4055 1.7195 5.9375 2.375 5.9375ZM16.625 8.3125H2.375C1.7195 8.3125 1.1875 8.8445 1.1875 9.5C1.1875 10.1555 1.7195 10.6875 2.375 10.6875H16.625C17.2805 10.6875 17.8125 10.1555 17.8125 9.5C17.8125 8.8445 17.2805 8.3125 16.625 8.3125ZM16.625 13.0625H2.375C1.7195 13.0625 1.1875 13.5945 1.1875 14.25C1.1875 14.9055 1.7195 15.4375 2.375 15.4375H16.625C17.2805 15.4375 17.8125 14.9055 17.8125 14.25C17.8125 13.5945 17.2805 13.0625 16.625 13.0625Z" fill="#5C5444"/>
</svg>
