<svg width="19" height="19" viewBox="0 0 19 19" fill="none" xmlns="http://www.w3.org/2000/svg">
<path fill-rule="evenodd" clip-rule="evenodd" d="M0.463743 0.463743C1.08208 -0.154581 2.08459 -0.154581 2.70293 0.463743L9.50002 7.26085L16.2971 0.463743C16.9154 -0.154581 17.918 -0.154581 18.5363 0.463743C19.1546 1.08208 19.1546 2.08459 18.5363 2.70293L11.7392 9.50002L18.5363 16.2971C19.1546 16.9154 19.1546 17.918 18.5363 18.5363C17.918 19.1546 16.9154 19.1546 16.2971 18.5363L9.50002 11.7392L2.70293 18.5363C2.08459 19.1546 1.08208 19.1546 0.463743 18.5363C-0.154581 17.918 -0.154581 16.9154 0.463743 16.2971L7.26085 9.50002L0.463743 2.70293C-0.154581 2.08459 -0.154581 1.08208 0.463743 0.463743Z" fill="#5C5444"/>
</svg>
