<svg width="21" height="21" viewBox="0 0 21 21" fill="none" xmlns="http://www.w3.org/2000/svg">
<g clip-path="url(#clip0_43_30)">
<path d="M12.91 6.05078H8.09006C7.82226 6.05078 7.55709 6.10352 7.30968 6.206C7.06227 6.30848 6.83746 6.45868 6.6481 6.64804C6.45874 6.8374 6.30854 7.0622 6.20606 7.30962C6.10358 7.55703 6.05084 7.8222 6.05084 8.09V12.9099C6.05084 13.4507 6.26569 13.9694 6.64811 14.3519C6.83747 14.5412 7.06227 14.6914 7.30968 14.7939C7.55709 14.8964 7.82226 14.9491 8.09006 14.9491H12.91C13.4508 14.9491 13.9695 14.7343 14.3519 14.3518C14.7343 13.9694 14.9491 13.4507 14.9491 12.9099V8.09C14.9491 7.8222 14.8964 7.55703 14.7939 7.30963C14.6915 7.06222 14.5413 6.83742 14.3519 6.64806C14.1625 6.4587 13.9377 6.30849 13.6903 6.20601C13.4429 6.10353 13.1778 6.05078 12.91 6.05078ZM10.5 13.3051C9.94522 13.3051 9.40288 13.1405 8.94158 12.8323C8.48029 12.5241 8.12075 12.086 7.90844 11.5734C7.69613 11.0609 7.64058 10.4968 7.74881 9.9527C7.85705 9.40857 8.12421 8.90875 8.51651 8.51645C8.90881 8.12415 9.40863 7.85699 9.95276 7.74875C10.4969 7.64052 11.0609 7.69607 11.5735 7.90838C12.086 8.12069 12.5241 8.48023 12.8324 8.94152C13.1406 9.40282 13.3051 9.94516 13.3051 10.5C13.3051 10.8683 13.2326 11.2331 13.0916 11.5734C12.9506 11.9137 12.744 12.223 12.4835 12.4835C12.223 12.7439 11.9138 12.9506 11.5735 13.0915C11.2331 13.2325 10.8684 13.3051 10.5 13.3051ZM13.422 8.26788C13.2901 8.26789 13.161 8.22876 13.0513 8.15543C12.9415 8.0821 12.856 7.97788 12.8055 7.85593C12.7549 7.73399 12.7417 7.5998 12.7675 7.47034C12.7932 7.34089 12.8568 7.22197 12.9501 7.12863C13.0434 7.0353 13.1623 6.97173 13.2918 6.94598C13.4213 6.92022 13.5554 6.93344 13.6774 6.98395C13.7993 7.03446 13.9036 7.11999 13.9769 7.22974C14.0502 7.33949 14.0894 7.46852 14.0894 7.60052C14.0894 7.77751 14.0191 7.94725 13.8939 8.0724C13.7688 8.19755 13.599 8.26787 13.422 8.26788Z" fill="white"/>
<path d="M10.4999 8.67651C10.1393 8.67651 9.78677 8.78345 9.48693 8.9838C9.18708 9.18416 8.95338 9.46892 8.81537 9.8021C8.67737 10.1353 8.64126 10.5019 8.71161 10.8556C8.78196 11.2093 8.95562 11.5342 9.21062 11.7892C9.46562 12.0442 9.79051 12.2178 10.1442 12.2882C10.4979 12.3585 10.8645 12.3224 11.1977 12.1844C11.5309 12.0464 11.8156 11.8127 12.016 11.5129C12.2163 11.213 12.3233 10.8605 12.3233 10.4999C12.3233 10.0163 12.1312 9.5525 11.7892 9.21056C11.4473 8.86862 10.9835 8.67651 10.4999 8.67651Z" fill="white"/>
<path d="M10.4741 0C4.68939 0 0 4.68939 0 10.4741C0 16.2587 4.68939 20.9481 10.4741 20.9481C16.2587 20.9481 20.9481 16.2587 20.9481 10.4741C20.9481 4.68939 16.2587 0 10.4741 0ZM15.9293 12.7857C15.9293 13.6194 15.5981 14.419 15.0085 15.0085C14.419 15.5981 13.6194 15.9293 12.7857 15.9293H8.1624C7.32868 15.9293 6.52912 15.5981 5.93959 15.0085C5.35005 14.419 5.01884 13.6194 5.01879 12.7857V8.1624C5.01883 7.32868 5.35004 6.52911 5.93958 5.93959C6.52911 5.35006 7.32868 5.01886 8.1624 5.01884H12.7857C13.6194 5.01887 14.419 5.35007 15.0085 5.9396C15.5981 6.52913 15.9293 7.32869 15.9293 8.1624V12.7857Z" fill="white"/>
</g>
<defs>
<clipPath id="clip0_43_30">
<rect width="21" height="21" fill="white"/>
</clipPath>
</defs>
</svg>
