<svg width="22" height="21" viewBox="0 0 22 21" fill="none" xmlns="http://www.w3.org/2000/svg">
<g clip-path="url(#clip0_43_34)">
<path d="M10.9225 0C5.13788 0 0.448486 4.68939 0.448486 10.4741C0.448486 16.2587 5.13788 20.9481 10.9225 20.9481C16.7072 20.9481 21.3966 16.2587 21.3966 10.4741C21.3966 4.68939 16.7072 0 10.9225 0ZM15.5015 8.12746C15.5137 8.90856 15.4104 12.814 11.7036 14.5064C7.99693 16.1987 5.19455 14.0898 5.19455 14.0898C7.26792 14.2851 8.62787 13.1134 8.62787 13.1134C6.9485 13.0418 6.46031 11.4797 6.46031 11.4797C7.05917 11.5838 7.47355 11.4167 7.47355 11.4167C5.59898 10.9135 5.64669 9.09083 5.64669 9.09083C6.18042 9.40759 6.64909 9.35117 6.64909 9.35117C4.91334 8.10144 5.97564 6.23984 5.97564 6.23984C7.92836 8.64822 10.8534 8.7154 10.8534 8.7154C10.812 8.5222 10.7915 8.32507 10.7924 8.12746C10.7924 6.56531 12.1688 5.78422 13.1356 5.78422C14.1025 5.78422 14.818 6.51323 14.818 6.51323C15.5536 6.4805 16.3412 5.97946 16.3412 5.97946C16.0287 6.92982 15.3715 7.28131 15.3715 7.28131C15.9671 7.21622 16.6508 6.91677 16.6508 6.91677C16.4197 7.42451 15.5015 8.12746 15.5015 8.12746Z" fill="white"/>
</g>
<defs>
<clipPath id="clip0_43_34">
<rect width="21" height="21" fill="white" transform="translate(0.448486)"/>
</clipPath>
</defs>
</svg>
