<svg width="21" height="21" viewBox="0 0 21 21" fill="none" xmlns="http://www.w3.org/2000/svg">
<g clip-path="url(#clip0_43_26)">
<path fill-rule="evenodd" clip-rule="evenodd" d="M10.4598 20.9999L10.4692 21H10.4659L10.4598 20.9999ZM10.5338 21H10.5306L10.54 20.9999L10.5338 21ZM10.4277 20.9998L10.4378 20.9998H10.432L10.4277 20.9998ZM10.5678 20.9998H10.5619L10.5721 20.9998L10.5678 20.9998ZM10.3968 20.9995L10.4035 20.9996L10.3981 20.9995H10.3968ZM10.6016 20.9995L10.5962 20.9996L10.603 20.9995H10.6016ZM10.6355 20.9991L10.6331 20.9992L10.6423 20.9991L10.6355 20.9991ZM10.3575 20.9991L10.3666 20.9992L10.3642 20.9991L10.3575 20.9991ZM10.6694 20.9986L10.6638 20.9987L10.6751 20.9986L10.6694 20.9986ZM10.3247 20.9986L10.3359 20.9987L10.3304 20.9986L10.3247 20.9986ZM10.7032 20.9981L10.6957 20.9982L10.7061 20.998L10.7032 20.9981ZM10.2937 20.998L10.3041 20.9982L10.2966 20.9981L10.2937 20.998ZM10.2552 20.9972L10.2644 20.9974L10.2628 20.9974L10.2552 20.9972ZM10.7369 20.9974L10.7353 20.9974L10.7445 20.9972L10.7369 20.9974ZM10.2215 20.9964L10.2342 20.9967L10.2291 20.9966L10.2215 20.9964ZM10.7707 20.9966L10.7656 20.9967L10.7783 20.9964L10.7707 20.9966ZM10.8045 20.9957L10.7962 20.9959L10.8092 20.9955L10.8045 20.9957ZM10.1906 20.9955L10.2035 20.9959L10.1953 20.9957L10.1906 20.9955ZM10.161 20.9946L10.1703 20.9949L10.1616 20.9946L10.1536 20.9944L10.161 20.9946ZM10.8382 20.9946L10.8295 20.9949L10.8387 20.9946L10.8461 20.9944L10.8382 20.9946ZM10.8718 20.9935L10.8673 20.9937L10.8814 20.9932L10.8718 20.9935ZM10.1184 20.9932L10.1325 20.9937L10.1279 20.9935L10.1184 20.9932ZM10.0876 20.992L10.1025 20.9926L10.0942 20.9923L10.0876 20.992ZM10.9055 20.9923L10.8973 20.9926L10.9121 20.992L10.9055 20.9923ZM10.0575 20.9908L10.072 20.9914L10.0606 20.991L10.0575 20.9908ZM10.9391 20.991L10.9278 20.9914L10.9423 20.9908L10.9391 20.991ZM10.0152 20.989L10.0308 20.9897L10.027 20.9895L10.0152 20.989ZM10.9727 20.9895L10.9689 20.9897L10.9845 20.989L10.9727 20.9895ZM9.98493 20.9876L10.0011 20.9883L9.99346 20.988L9.98493 20.9876ZM11.0063 20.988L10.9987 20.9883L11.0148 20.9876L11.0063 20.988ZM9.95507 20.9861L9.97135 20.9869L9.95991 20.9863L9.95507 20.9861ZM11.0398 20.9863L11.0284 20.9869L11.0447 20.9861L11.0398 20.9863ZM11.0734 20.9846L11.0586 20.9854L11.0717 20.9847L11.0872 20.9838L11.0734 20.9846ZM9.92804 20.9847L9.9412 20.9854L9.92636 20.9846L9.91253 20.9838L9.92804 20.9847ZM11.1069 20.9827L11.1003 20.9831L11.117 20.9821L11.1069 20.9827ZM9.8828 20.9821L9.89945 20.9831L9.89289 20.9827L9.8828 20.9821ZM9.85318 20.9804L9.8698 20.9813L9.85942 20.9808L9.85318 20.9804ZM11.1403 20.9808L11.13 20.9813L11.1466 20.9804L11.1403 20.9808ZM9.82493 20.9786L9.8399 20.9795L9.82595 20.9787L9.81192 20.9778L9.82493 20.9786ZM11.1738 20.9787L11.1599 20.9795L11.1748 20.9786L11.1878 20.9778L11.1738 20.9787ZM11.2072 20.9765L11.2022 20.9768L11.2181 20.9758L11.2072 20.9765ZM9.78169 20.9758L9.79757 20.9768L9.79256 20.9765L9.78169 20.9758ZM9.75212 20.9737L9.76771 20.9748L9.75918 20.9742L9.75212 20.9737ZM11.2406 20.9742L11.232 20.9748L11.2476 20.9737L11.2406 20.9742ZM9.72263 20.9716L9.73695 20.9726L9.72583 20.9719L9.72263 20.9716ZM11.2739 20.9719L11.2628 20.9726L11.2771 20.9716L11.2739 20.9719ZM9.68297 20.9686L9.69552 20.9696L9.69249 20.9694L9.68297 20.9686ZM11.3073 20.9694L11.3042 20.9696L11.3168 20.9686L11.3073 20.9694ZM11.3405 20.9668L11.3345 20.9672L11.3473 20.9662L11.3405 20.9668ZM9.65245 20.9662L9.66521 20.9672L9.65922 20.9668L9.65245 20.9662ZM9.62272 20.9638L9.63355 20.9647L9.62592 20.9641L9.62272 20.9638ZM11.3738 20.9641L11.3662 20.9647L11.377 20.9638L11.3738 20.9641ZM9.58999 20.961L9.59323 20.9613L9.59269 20.9613L9.58999 20.961ZM11.4071 20.9613L11.4065 20.9613L11.4098 20.961L11.4071 20.9613ZM11.4403 20.9584L11.4373 20.9586L11.4448 20.958L11.4403 20.9584ZM9.555 20.958L9.56242 20.9586L9.55947 20.9584L9.555 20.958ZM9.52424 20.9552L9.52978 20.9557L9.52633 20.9554L9.52424 20.9552ZM11.4734 20.9554L11.47 20.9557L11.4755 20.9552L11.4734 20.9554ZM8.85925 20.8723C3.84226 20.0838 -0.00012207 15.737 -0.00012207 10.5C-0.00012207 4.7049 4.70478 0 10.4999 0C16.295 0 20.9999 4.7049 20.9999 10.5C20.9999 15.737 17.1575 20.0838 12.1405 20.8723V13.5352H14.5871L15.0526 10.5H12.1405V8.53039C12.1405 7.70003 12.5473 6.89063 13.8516 6.89063H15.1757V4.30664C15.1757 4.30664 13.9741 4.10156 12.8253 4.10156C10.4268 4.10156 8.85925 5.55516 8.85925 8.18672V10.5H6.19324V13.5352H8.85925V20.8723Z" fill="#5C5444"/>
</g>
<defs>
<clipPath id="clip0_43_26">
<rect width="21" height="21" fill="white"/>
</clipPath>
</defs>
</svg>
