<svg width="22" height="21" viewBox="0 0 22 21" fill="none" xmlns="http://www.w3.org/2000/svg">
<g clip-path="url(#clip0_42_20)">
<path d="M13.0131 6.05078H8.19315C7.92535 6.05078 7.66018 6.10352 7.41277 6.206C7.16535 6.30848 6.94055 6.45868 6.75119 6.64804C6.56183 6.8374 6.41162 7.0622 6.30915 7.30962C6.20667 7.55703 6.15393 7.8222 6.15393 8.09V12.9099C6.15393 13.4507 6.36878 13.9694 6.7512 14.3519C6.94056 14.5412 7.16536 14.6914 7.41277 14.7939C7.66018 14.8964 7.92535 14.9491 8.19315 14.9491H13.0131C13.5539 14.9491 14.0726 14.7343 14.455 14.3518C14.8374 13.9694 15.0522 13.4507 15.0522 12.9099V8.09C15.0522 7.8222 14.9995 7.55703 14.897 7.30963C14.7945 7.06222 14.6443 6.83742 14.455 6.64806C14.2656 6.4587 14.0408 6.30849 13.7934 6.20601C13.546 6.10353 13.2808 6.05078 13.0131 6.05078ZM10.6031 13.3051C10.0483 13.3051 9.50597 13.1405 9.04467 12.8323C8.58337 12.5241 8.22384 12.086 8.01153 11.5734C7.79922 11.0609 7.74366 10.4968 7.8519 9.9527C7.96014 9.40857 8.2273 8.90875 8.6196 8.51645C9.0119 8.12415 9.51172 7.85699 10.0559 7.74875C10.6 7.64052 11.164 7.69607 11.6766 7.90838C12.1891 8.12069 12.6272 8.48023 12.9355 8.94152C13.2437 9.40282 13.4082 9.94516 13.4082 10.5C13.4082 10.8683 13.3356 11.2331 13.1947 11.5734C13.0537 11.9137 12.8471 12.223 12.5866 12.4835C12.3261 12.7439 12.0169 12.9506 11.6766 13.0915C11.3362 13.2325 10.9715 13.3051 10.6031 13.3051ZM13.5251 8.26788C13.3931 8.26789 13.2641 8.22876 13.1544 8.15543C13.0446 8.0821 12.9591 7.97788 12.9085 7.85593C12.858 7.73399 12.8448 7.5998 12.8705 7.47034C12.8963 7.34089 12.9599 7.22197 13.0532 7.12863C13.1465 7.0353 13.2654 6.97173 13.3949 6.94598C13.5243 6.92022 13.6585 6.93344 13.7805 6.98395C13.9024 7.03446 14.0067 7.11999 14.08 7.22974C14.1533 7.33949 14.1925 7.46852 14.1925 7.60052C14.1925 7.77751 14.1222 7.94725 13.997 8.0724C13.8719 8.19755 13.7021 8.26787 13.5251 8.26788Z" fill="#5C5444"/>
<path d="M10.603 8.67664C10.2424 8.67664 9.88986 8.78357 9.59001 8.98393C9.29017 9.18428 9.05646 9.46905 8.91846 9.80222C8.78045 10.1354 8.74434 10.502 8.8147 10.8557C8.88505 11.2094 9.05871 11.5343 9.31371 11.7893C9.56871 12.0443 9.8936 12.2179 10.2473 12.2883C10.601 12.3587 10.9676 12.3225 11.3008 12.1845C11.634 12.0465 11.9187 11.8128 12.1191 11.513C12.3194 11.2131 12.4264 10.8606 12.4264 10.5C12.4264 10.0164 12.2343 9.55263 11.8923 9.21068C11.5504 8.86874 11.0866 8.67664 10.603 8.67664Z" fill="#5C5444"/>
<path d="M10.6031 0C4.80416 0 0.103149 4.70101 0.103149 10.5C0.103149 16.299 4.80416 21 10.6031 21C16.4021 21 21.1031 16.299 21.1031 10.5C21.1031 4.70101 16.4021 0 10.6031 0ZM16.0719 12.8174C16.0719 13.6532 15.7398 14.4547 15.1488 15.0457C14.5579 15.6367 13.7563 15.9687 12.9205 15.9687H8.28577C7.44998 15.9687 6.64844 15.6367 6.05744 15.0457C5.46645 14.4547 5.13442 13.6532 5.13437 12.8174V8.18262C5.1344 7.34683 5.46644 6.54528 6.05743 5.9543C6.64843 5.36331 7.44998 5.03129 8.28577 5.03126H12.9205C13.7563 5.0313 14.5579 5.36332 15.1488 5.95431C15.7398 6.5453 16.0719 7.34684 16.0719 8.18262V12.8174Z" fill="#5C5444"/>
</g>
<defs>
<clipPath id="clip0_42_20">
<rect width="21" height="21" fill="white" transform="translate(0.103149)"/>
</clipPath>
</defs>
</svg>
