<svg width="780" height="358" viewBox="0 0 780 358" fill="none" xmlns="http://www.w3.org/2000/svg">
<path d="M390 1.75C497.502 1.75 594.743 21.7531 665.042 54.0186C735.493 86.3538 778.25 130.67 778.25 179C778.25 227.33 735.493 271.646 665.042 303.981C594.743 336.247 497.502 356.25 390 356.25C282.498 356.25 185.257 336.247 114.958 303.981C44.5072 271.646 1.75 227.33 1.75 179C1.75 130.67 44.5072 86.3538 114.958 54.0186C185.257 21.7531 282.498 1.75 390 1.75Z" fill="#F8D0A1" stroke="#5C5444" stroke-width="3.5"/>
<path d="M389.573 13.0718C494.157 13.0718 588.769 31.7868 657.179 61.9829C691.386 77.0819 718.974 95.0224 737.99 114.868C756.999 134.705 767.381 156.375 767.381 179C767.381 201.626 757 223.296 737.99 243.133C718.974 262.979 691.385 280.918 657.179 296.017C588.769 326.213 494.157 344.928 389.573 344.928C284.988 344.928 190.376 326.213 121.966 296.017C87.7593 280.918 60.1699 262.979 41.1536 243.133C22.1445 223.296 11.7631 201.626 11.7629 179C11.7629 156.375 22.1447 134.705 41.1536 114.868C60.1699 95.0223 87.7593 77.0819 121.966 61.9829C190.376 31.7868 284.988 13.0718 389.573 13.0718Z" stroke="#5C5444" stroke-width="3"/>
<g filter="url(#filter0_f_3_11)">
<path d="M389.144 24.3933C488.682 24.3933 578.736 41.7374 643.86 69.7292C676.424 83.7261 702.697 100.361 720.811 118.768C738.92 137.171 748.815 157.279 748.815 178.277C748.815 199.275 738.92 219.383 720.811 237.785C702.697 256.193 676.424 272.827 643.86 286.824C578.736 314.816 488.682 332.16 389.144 332.16C289.607 332.16 199.552 314.816 134.429 286.824C101.865 272.827 75.5914 256.193 57.4774 237.785C39.369 219.383 29.4736 199.275 29.4735 178.277C29.4735 157.279 39.3689 137.171 57.4774 118.768C75.5913 100.361 101.865 83.7261 134.429 69.7292C199.552 41.7374 289.607 24.3933 389.144 24.3933Z" stroke="#5C5444" stroke-width="2.5"/>
</g>
<path d="M141.955 139.476C141.117 141.668 140.44 143.989 139.924 146.439C139.473 148.89 139.086 151.501 138.764 154.274C136.507 155.112 134.057 155.273 131.413 154.758C131.929 150.631 131.832 147.536 131.123 145.472C130.413 143.344 129.22 141.894 127.544 141.12C125.932 140.282 123.933 139.862 121.547 139.862C117.227 139.862 113.423 141.152 110.134 143.731C106.91 146.246 104.298 149.599 102.3 153.79C100.365 157.982 99.0433 162.528 98.334 167.428C97.6247 172.2 97.6892 176.584 98.5274 180.582C99.4302 184.516 101.203 187.675 103.847 190.061C106.555 192.447 110.295 193.64 115.067 193.64C117.84 193.64 120.612 193.253 123.385 192.479C126.158 191.705 128.963 190.545 131.8 188.997C132.445 189.642 132.896 190.416 133.154 191.318C133.476 192.221 133.67 193.188 133.734 194.22C130.317 196.606 126.738 198.379 122.998 199.54C119.258 200.636 115.228 201.184 110.908 201.184C104.073 201.184 98.3985 199.701 93.8848 196.735C89.4356 193.704 86.276 189.61 84.4061 184.451C82.6006 179.293 82.2137 173.425 83.2454 166.848C84.0837 161.238 85.7279 156.37 88.1782 152.243C90.6285 148.116 93.6269 144.698 97.1733 141.99C100.72 139.282 104.556 137.283 108.683 135.994C112.874 134.704 117.034 134.059 121.16 134.059C125.158 134.059 128.834 134.478 132.187 135.316C135.54 136.155 138.796 137.541 141.955 139.476ZM185.192 155.144C185.902 155.596 186.417 156.144 186.74 156.789C187.127 157.434 187.32 158.336 187.32 159.497C187.32 160.593 187.095 162.108 186.643 164.043L182.001 184.258C181.291 187.675 180.969 189.868 181.033 190.835C181.098 191.802 181.581 192.286 182.484 192.286C183.129 192.286 183.742 192.124 184.322 191.802C184.967 191.48 185.74 190.931 186.643 190.158C187.224 190.738 187.739 191.48 188.191 192.382C188.642 193.221 188.964 194.091 189.158 194.994C187.288 196.928 185.257 198.444 183.064 199.54C180.872 200.636 178.486 201.184 175.907 201.184C173.973 201.184 172.425 200.829 171.264 200.12C170.104 199.346 169.266 198.347 168.75 197.122C168.234 195.897 167.976 194.575 167.976 193.156C167.976 191.737 168.105 190.383 168.363 189.094C168.556 188.256 168.782 187.385 169.04 186.482C169.362 185.58 169.685 184.677 170.007 183.774C170.394 182.807 170.781 181.872 171.168 180.969L174.36 164.72L170.684 156.595C173.392 156.66 175.972 156.595 178.422 156.402C180.872 156.144 183.129 155.725 185.192 155.144ZM178.035 156.789L173.779 162.592C172.941 162.141 171.877 161.818 170.587 161.625C169.362 161.367 168.234 161.238 167.202 161.238C164.043 161.238 161.56 162.592 159.755 165.3C157.949 167.944 156.627 171.361 155.789 175.553C154.757 180.518 154.467 184.29 154.918 186.869C155.37 189.448 156.498 190.738 158.304 190.738C159.4 190.738 160.786 189.932 162.463 188.32C164.139 186.708 165.816 184.225 167.492 180.872C169.169 177.455 170.587 173.102 171.748 167.815L173.586 160.077L177.261 160.754L172.522 181.84H170.587C169.169 185.708 167.46 189.094 165.461 191.995C163.462 194.897 161.238 197.154 158.787 198.766C156.402 200.378 153.79 201.184 150.953 201.184C148.374 201.184 146.278 200.604 144.666 199.443C143.118 198.282 141.958 196.67 141.184 194.607C140.475 192.543 140.12 190.19 140.12 187.546C140.12 184.902 140.41 182.13 140.991 179.228C141.893 174.714 143.505 170.652 145.827 167.041C148.212 163.366 151.308 160.464 155.112 158.336C158.981 156.208 163.494 155.144 168.653 155.144C170.523 155.144 172.264 155.306 173.876 155.628C175.488 155.95 176.874 156.337 178.035 156.789ZM229.564 131.254C232.208 131.254 234.497 131.448 236.431 131.835C238.366 132.221 239.817 132.705 240.784 133.285C240.333 134.446 239.913 135.8 239.527 137.348C239.204 138.895 238.914 140.475 238.656 142.087C238.398 143.635 238.269 145.053 238.269 146.343C237.818 146.536 237.173 146.73 236.335 146.923C235.561 147.052 234.69 147.149 233.723 147.213C232.82 147.278 231.982 147.31 231.208 147.31C231.208 145.505 231.047 143.828 230.725 142.28C230.467 140.733 230.048 139.508 229.467 138.605C228.887 137.638 227.984 137.154 226.759 137.154C225.47 137.154 224.341 137.702 223.374 138.798C222.407 139.895 221.504 141.861 220.666 144.698C219.828 147.536 218.893 151.63 217.861 156.982C216.7 163.108 215.733 168.589 214.959 173.425C214.185 178.261 213.476 182.581 212.831 186.386C212.058 191.609 210.865 196.509 209.253 201.087C207.705 205.665 205.803 209.695 203.546 213.177C201.354 216.659 198.839 219.368 196.002 221.302C193.165 223.301 190.069 224.3 186.716 224.3C184.975 224.3 183.267 223.946 181.59 223.237C179.914 222.592 178.398 221.56 177.044 220.141C176.98 218.916 177.109 217.53 177.431 215.982C177.689 214.499 178.044 213.21 178.495 212.114C180.043 212.758 181.719 213.21 183.525 213.468C185.33 213.79 187.168 213.951 189.038 213.951C190.392 213.951 191.52 213.758 192.423 213.371C193.39 213.049 194.196 212.275 194.841 211.05C195.486 209.889 196.066 208.083 196.582 205.633C197.162 203.183 197.711 199.927 198.226 195.864C198.807 190.964 199.484 185.225 200.258 178.648C201.096 172.006 202.192 164.591 203.546 156.402C204.255 152.275 205.255 148.664 206.544 145.569C207.899 142.409 209.607 139.766 211.671 137.638C213.799 135.51 216.313 133.93 219.215 132.898C222.117 131.802 225.566 131.254 229.564 131.254ZM196.292 156.982H204.32L203.933 164.14C202.321 163.688 200.741 163.366 199.194 163.172C197.646 162.914 196.26 162.785 195.035 162.785C195.035 161.754 195.131 160.722 195.325 159.69C195.518 158.594 195.841 157.691 196.292 156.982ZM216.313 156.982H227.049C227.049 158.078 226.985 159.175 226.856 160.271C226.791 161.367 226.598 162.27 226.276 162.979C224.406 162.979 222.6 163.076 220.859 163.269C219.183 163.463 217.538 163.753 215.926 164.14L216.313 156.982ZM242.498 201.184C238.888 201.184 235.954 200.539 233.697 199.25C231.504 197.96 229.892 196.219 228.861 194.027C227.829 191.77 227.249 189.287 227.12 186.579C227.055 183.871 227.281 181.098 227.797 178.261C228.764 173.36 230.505 169.201 233.02 165.784C235.534 162.302 238.533 159.658 242.015 157.853C245.561 156.047 249.366 155.144 253.428 155.144C256.717 155.144 259.393 155.693 261.456 156.789C263.519 157.885 264.97 159.336 265.808 161.141C266.647 162.882 266.84 164.784 266.389 166.848C266.002 168.782 265.035 170.652 263.487 172.458C262.004 174.263 260.07 175.907 257.684 177.39C255.362 178.809 252.686 179.97 249.656 180.872C246.69 181.711 243.595 182.162 240.371 182.227L240.661 176.617C244.659 176.488 248.076 175.649 250.913 174.102C253.815 172.49 255.556 170.33 256.136 167.622C256.523 165.623 256.362 164.043 255.653 162.882C255.008 161.722 253.815 161.141 252.074 161.141C250.139 161.141 248.27 162.302 246.464 164.623C244.659 166.88 243.304 170.491 242.402 175.456C241.886 178.358 241.628 181.13 241.628 183.774C241.692 186.353 242.273 188.449 243.369 190.061C244.53 191.673 246.4 192.479 248.979 192.479C250.849 192.479 252.654 192.124 254.395 191.415C256.201 190.641 257.845 189.61 259.328 188.32C259.973 189.094 260.424 189.932 260.682 190.835C261.005 191.673 261.166 192.64 261.166 193.736C258.651 196.122 255.911 197.96 252.944 199.25C250.043 200.539 246.561 201.184 242.498 201.184ZM256.233 131.157C258.683 130.642 261.069 130.513 263.39 130.771C265.712 131.028 267.549 131.577 268.903 132.415C266.131 134.93 263.487 137.638 260.972 140.539C258.458 143.377 256.201 146.214 254.202 149.051C251.945 148.793 249.946 148.084 248.205 146.923C249.366 145.053 250.462 143.151 251.494 141.217C252.525 139.282 253.46 137.444 254.298 135.703C255.137 133.962 255.782 132.447 256.233 131.157ZM311.339 185.708C310.824 188.417 310.695 190.416 310.952 191.705C311.275 192.995 311.92 193.801 312.887 194.123C313.919 194.446 315.24 194.607 316.853 194.607C320.206 194.607 323.172 193.511 325.751 191.318C328.395 189.126 330.039 186.16 330.684 182.42C331.651 177.584 331.006 174.231 328.749 172.361C326.492 170.491 322.462 169.556 316.659 169.556H311.533L312.597 163.269H318.11C322.237 163.269 325.622 162.205 328.266 160.077C330.909 157.885 332.586 154.887 333.295 151.082C334.004 147.6 333.456 144.989 331.651 143.248C329.91 141.442 327.331 140.539 323.913 140.539C322.817 140.539 321.785 140.668 320.818 140.926C319.915 141.184 318.884 141.539 317.723 141.99L319.464 138.412L311.339 185.708ZM308.438 134.93C310.888 134.93 313.693 134.897 316.853 134.833C320.077 134.704 323.268 134.639 326.428 134.639C332.296 134.639 336.906 135.252 340.259 136.477C343.677 137.702 345.998 139.54 347.223 141.99C348.448 144.441 348.738 147.536 348.094 151.276C347.513 154.693 345.74 157.627 342.774 160.077C339.808 162.528 335.874 164.107 330.974 164.817C337.358 165.139 341.807 166.944 344.321 170.233C346.901 173.457 347.674 177.939 346.643 183.677C345.998 187.03 344.515 189.964 342.194 192.479C339.872 194.929 336.648 196.864 332.521 198.282C328.395 199.636 323.301 200.313 317.239 200.313C314.015 200.313 310.662 200.313 307.18 200.313C303.763 200.313 300.41 200.313 297.121 200.313C293.833 200.378 290.802 200.475 288.029 200.604C288.094 199.443 288.255 198.379 288.513 197.412C288.771 196.445 289.061 195.542 289.384 194.704C291.189 194.446 292.543 194.059 293.446 193.543C294.413 192.963 295.155 191.931 295.67 190.448C296.186 188.965 296.67 186.74 297.121 183.774L303.118 149.438C303.569 147.052 303.666 145.279 303.408 144.118C303.215 142.893 302.667 142.055 301.764 141.603C300.861 141.088 299.572 140.733 297.895 140.539C297.702 139.637 297.605 138.702 297.605 137.735C297.605 136.703 297.669 135.671 297.798 134.639C299.604 134.704 301.409 134.768 303.215 134.833C305.02 134.897 306.761 134.93 308.438 134.93ZM372.195 201.184C367.294 201.184 363.296 200.217 360.201 198.282C357.106 196.283 354.946 193.543 353.721 190.061C352.56 186.579 352.367 182.581 353.141 178.067C353.914 173.296 355.526 169.234 357.977 165.881C360.427 162.463 363.522 159.819 367.262 157.949C371.002 156.079 375.225 155.144 379.932 155.144C384.769 155.144 388.702 156.112 391.732 158.046C394.828 159.916 396.988 162.56 398.213 165.977C399.502 169.33 399.76 173.296 398.987 177.874C398.277 182.581 396.698 186.708 394.247 190.254C391.797 193.736 388.702 196.445 384.962 198.379C381.222 200.249 376.966 201.184 372.195 201.184ZM373.259 195.284C374.935 195.284 376.483 194.607 377.901 193.253C379.384 191.899 380.674 189.964 381.77 187.449C382.931 184.935 383.801 181.936 384.382 178.454C385.284 173.296 385.22 169.105 384.188 165.881C383.156 162.656 381.287 161.044 378.578 161.044C376.128 161.044 373.936 162.528 372.001 165.494C370.131 168.46 368.745 172.361 367.842 177.197C367.262 180.937 367.068 184.161 367.262 186.869C367.52 189.577 368.165 191.673 369.196 193.156C370.293 194.575 371.647 195.284 373.259 195.284ZM415.636 201.184C413.572 201.184 411.928 200.7 410.703 199.733C409.478 198.766 408.607 197.38 408.091 195.574C407.575 193.704 407.414 191.447 407.608 188.804C407.801 186.095 408.285 183.065 409.059 179.712C409.897 176.101 410.509 173.264 410.896 171.2C411.283 169.137 411.348 167.654 411.09 166.751C410.896 165.848 410.348 165.268 409.445 165.01C408.607 164.752 407.35 164.591 405.673 164.526C405.673 163.688 405.738 162.785 405.867 161.818C405.996 160.787 406.221 159.884 406.544 159.11C408.349 159.046 410.316 158.82 412.444 158.433C414.572 158.046 416.635 157.562 418.634 156.982C420.697 156.402 422.471 155.789 423.954 155.144C424.792 155.66 425.404 156.241 425.791 156.885C426.243 157.466 426.468 158.401 426.468 159.69C426.468 160.98 426.211 162.914 425.695 165.494C425.179 168.008 424.405 171.458 423.373 175.843C422.6 179.325 422.148 182.098 422.019 184.161C421.955 186.16 422.18 187.611 422.696 188.513C423.277 189.352 424.05 189.771 425.018 189.771C426.372 189.771 427.984 188.9 429.854 187.159C431.724 185.418 433.561 182.678 435.367 178.938C437.237 175.198 438.72 170.298 439.816 164.236L441.46 156.015H455.195L450.649 180.292C449.94 183.968 449.456 186.676 449.198 188.417C449.005 190.093 449.005 191.189 449.198 191.705C449.456 192.157 449.907 192.382 450.552 192.382C451.455 192.382 452.712 191.641 454.324 190.158C454.905 190.674 455.42 191.383 455.872 192.286C456.323 193.188 456.613 194.091 456.742 194.994C454.937 196.864 452.841 198.379 450.455 199.54C448.07 200.636 445.716 201.184 443.395 201.184C440.751 201.184 438.72 200.668 437.301 199.636C435.947 198.605 435.109 197.283 434.786 195.671C434.464 193.994 434.496 192.124 434.883 190.061C435.012 189.352 435.206 188.61 435.464 187.836C435.721 187.063 436.044 186.257 436.431 185.418H436.334C435.302 187.546 434.045 189.545 432.562 191.415C431.079 193.285 429.435 194.962 427.629 196.445C425.824 197.928 423.889 199.088 421.826 199.927C419.827 200.765 417.763 201.184 415.636 201.184ZM471.919 201.184C468.631 201.184 466.309 200.378 464.955 198.766C463.666 197.154 463.053 194.994 463.118 192.286C463.118 191.447 463.15 190.545 463.214 189.577C463.343 188.546 463.537 187.159 463.795 185.418C464.053 183.677 464.44 181.356 464.955 178.454C465.536 175.553 466.245 171.813 467.083 167.235C467.986 162.592 469.114 156.885 470.468 150.115C470.984 147.471 471.21 145.505 471.146 144.215C471.146 142.925 470.694 142.087 469.791 141.7C468.953 141.313 467.502 141.12 465.439 141.12C465.439 140.217 465.503 139.282 465.632 138.315C465.761 137.283 465.987 136.38 466.309 135.607C468.179 135.542 470.178 135.316 472.306 134.93C474.499 134.543 476.626 134.059 478.69 133.479C480.753 132.898 482.559 132.286 484.106 131.641C485.267 132.415 486.008 133.318 486.331 134.349C486.718 135.381 486.718 136.961 486.331 139.089C485.106 146.182 483.816 153.21 482.462 160.174C481.172 167.138 479.851 173.973 478.496 180.679C477.916 184.032 477.561 186.547 477.432 188.223C477.303 189.835 477.368 190.931 477.626 191.512C477.948 192.028 478.367 192.286 478.883 192.286C479.399 192.286 479.979 192.124 480.624 191.802C481.269 191.48 482.043 190.931 482.946 190.158C483.526 190.738 484.042 191.48 484.493 192.382C484.945 193.221 485.235 194.059 485.364 194.897C483.558 196.831 481.463 198.379 479.077 199.54C476.691 200.636 474.305 201.184 471.919 201.184ZM534.864 155.144C535.573 155.596 536.089 156.144 536.412 156.789C536.798 157.434 536.992 158.336 536.992 159.497C536.992 160.593 536.766 162.108 536.315 164.043L531.672 184.258C530.963 187.675 530.64 189.868 530.705 190.835C530.769 191.802 531.253 192.286 532.156 192.286C532.801 192.286 533.413 192.124 533.993 191.802C534.638 191.48 535.412 190.931 536.315 190.158C536.895 190.738 537.411 191.48 537.862 192.382C538.314 193.221 538.636 194.091 538.83 194.994C536.96 196.928 534.928 198.444 532.736 199.54C530.544 200.636 528.158 201.184 525.579 201.184C523.644 201.184 522.097 200.829 520.936 200.12C519.775 199.346 518.937 198.347 518.421 197.122C517.905 195.897 517.648 194.575 517.648 193.156C517.648 191.737 517.776 190.383 518.034 189.094C518.228 188.256 518.454 187.385 518.711 186.482C519.034 185.58 519.356 184.677 519.679 183.774C520.066 182.807 520.452 181.872 520.839 180.969L524.031 164.72L520.356 156.595C523.064 156.66 525.643 156.595 528.093 156.402C530.544 156.144 532.801 155.725 534.864 155.144ZM527.707 156.789L523.451 162.592C522.613 162.141 521.549 161.818 520.259 161.625C519.034 161.367 517.905 161.238 516.874 161.238C513.714 161.238 511.232 162.592 509.426 165.3C507.621 167.944 506.299 171.361 505.461 175.553C504.429 180.518 504.139 184.29 504.59 186.869C505.041 189.448 506.17 190.738 507.975 190.738C509.072 190.738 510.458 189.932 512.134 188.32C513.811 186.708 515.487 184.225 517.164 180.872C518.84 177.455 520.259 173.102 521.42 167.815L523.257 160.077L526.933 160.754L522.193 181.84H520.259C518.84 185.708 517.132 189.094 515.133 191.995C513.134 194.897 510.909 197.154 508.459 198.766C506.073 200.378 503.462 201.184 500.625 201.184C498.045 201.184 495.95 200.604 494.338 199.443C492.79 198.282 491.629 196.67 490.856 194.607C490.146 192.543 489.792 190.19 489.792 187.546C489.792 184.902 490.082 182.13 490.662 179.228C491.565 174.714 493.177 170.652 495.498 167.041C497.884 163.366 500.979 160.464 504.784 158.336C508.652 156.208 513.166 155.144 518.325 155.144C520.195 155.144 521.936 155.306 523.548 155.628C525.16 155.95 526.546 156.337 527.707 156.789ZM544.803 200.313L549.832 173.618C550.348 170.975 550.606 169.008 550.606 167.718C550.606 166.429 550.155 165.59 549.252 165.203C548.414 164.817 546.963 164.623 544.9 164.623C544.9 163.72 544.964 162.785 545.093 161.818C545.222 160.787 545.448 159.884 545.77 159.11C547.64 159.046 549.639 158.82 551.767 158.433C553.959 158.046 556.087 157.562 558.151 156.982C560.214 156.402 562.019 155.789 563.567 155.144C564.728 155.66 565.501 156.466 565.888 157.562C566.34 158.594 566.436 159.884 566.178 161.431C565.792 163.817 565.308 165.913 564.728 167.718C564.147 169.459 563.406 171.361 562.503 173.425L560.375 191.802L558.828 200.313H544.803ZM583.782 155.144C585.394 155.144 586.877 155.467 588.231 156.112C589.585 156.756 590.681 157.82 591.52 159.303C592.422 160.722 592.938 162.656 593.067 165.107C593.26 167.557 592.938 170.555 592.1 174.102L589.779 183.968C589.198 186.547 588.811 188.417 588.618 189.577C588.424 190.738 588.424 191.48 588.618 191.802C588.876 192.124 589.23 192.286 589.682 192.286C590.262 192.286 590.907 192.092 591.616 191.705C592.39 191.318 593.164 190.803 593.938 190.158C594.518 190.738 595.034 191.48 595.485 192.382C596.001 193.221 596.323 194.091 596.452 194.994C594.324 197.122 592.1 198.701 589.779 199.733C587.522 200.7 585.233 201.184 582.911 201.184C579.752 201.184 577.527 200.507 576.237 199.153C574.948 197.734 574.303 195.768 574.303 193.253C574.368 190.738 574.754 187.869 575.464 184.645L577.495 175.843C578.011 173.522 578.269 171.652 578.269 170.233C578.269 168.75 578.043 167.686 577.592 167.041C577.205 166.332 576.592 165.977 575.754 165.977C574.658 165.977 573.4 166.558 571.982 167.718C570.563 168.814 569.112 170.459 567.629 172.651C566.146 174.779 564.76 177.455 563.47 180.679C562.181 183.903 561.149 187.611 560.375 191.802L560.085 178.648L564.147 170.233C565.05 168.363 566.211 166.525 567.629 164.72C569.048 162.914 570.628 161.302 572.369 159.884C574.11 158.401 575.947 157.24 577.882 156.402C579.881 155.564 581.847 155.144 583.782 155.144ZM613.253 224.3C610.223 224.3 607.579 223.849 605.322 222.946C603.065 222.108 600.937 220.915 598.938 219.368C598.874 218.143 598.971 216.788 599.229 215.305C599.551 213.887 599.97 212.629 600.486 211.533C602.227 212.114 604.097 212.629 606.096 213.081C608.095 213.597 610.061 213.951 611.996 214.145C613.995 214.403 615.832 214.532 617.509 214.532C618.927 214.532 620.088 214.37 620.991 214.048C621.958 213.726 622.732 213.049 623.312 212.017C623.957 210.985 624.505 209.405 624.956 207.277C625.408 205.214 625.891 202.409 626.407 198.863C626.73 196.735 627.246 194.413 627.955 191.899C628.664 189.384 629.599 186.643 630.76 183.677L631.727 181.163L634.919 162.689L630.663 156.692C634.403 156.692 637.401 156.563 639.658 156.305C641.915 156.047 643.72 155.66 645.075 155.144C646.106 155.789 646.751 156.628 647.009 157.659C647.267 158.626 647.235 160.109 646.912 162.108L642.27 188.804C641.367 193.769 640.11 198.379 638.498 202.635C636.95 206.955 634.983 210.727 632.597 213.951C630.212 217.175 627.407 219.69 624.183 221.496C621.023 223.365 617.38 224.3 613.253 224.3ZM638.691 156.789L634.435 162.592C633.597 162.141 632.533 161.818 631.243 161.625C630.018 161.367 628.89 161.238 627.858 161.238C624.699 161.238 622.216 162.592 620.411 165.3C618.605 167.944 617.283 171.361 616.445 175.553C615.413 180.518 615.123 184.29 615.574 186.869C616.026 189.448 617.154 190.738 618.96 190.738C620.056 190.738 621.442 189.932 623.119 188.32C624.795 186.708 626.472 184.225 628.148 180.872C629.825 177.455 631.243 173.102 632.404 167.815L634.242 160.077L637.917 160.754L633.178 181.84H631.243C629.825 185.708 628.116 189.094 626.117 191.995C624.118 194.897 621.894 197.154 619.443 198.766C617.058 200.378 614.446 201.184 611.609 201.184C609.03 201.184 606.934 200.604 605.322 199.443C603.774 198.282 602.614 196.67 601.84 194.607C601.131 192.543 600.776 190.19 600.776 187.546C600.776 184.902 601.066 182.13 601.647 179.228C602.549 174.714 604.161 170.652 606.483 167.041C608.868 163.366 611.964 160.464 615.768 158.336C619.637 156.208 624.15 155.144 629.309 155.144C631.179 155.144 632.92 155.306 634.532 155.628C636.144 155.95 637.53 156.337 638.691 156.789ZM666.884 201.184C663.273 201.184 660.339 200.539 658.082 199.25C655.89 197.96 654.278 196.219 653.246 194.027C652.214 191.77 651.634 189.287 651.505 186.579C651.441 183.871 651.666 181.098 652.182 178.261C653.149 173.36 654.89 169.201 657.405 165.784C659.92 162.302 662.918 159.658 666.4 157.853C669.947 156.047 673.751 155.144 677.813 155.144C681.102 155.144 683.778 155.693 685.841 156.789C687.905 157.885 689.356 159.336 690.194 161.141C691.032 162.882 691.226 164.784 690.774 166.848C690.387 168.782 689.42 170.652 687.872 172.458C686.389 174.263 684.455 175.907 682.069 177.39C679.748 178.809 677.072 179.97 674.041 180.872C671.075 181.711 667.98 182.162 664.756 182.227L665.046 176.617C669.044 176.488 672.461 175.649 675.299 174.102C678.2 172.49 679.941 170.33 680.522 167.622C680.909 165.623 680.747 164.043 680.038 162.882C679.393 161.722 678.2 161.141 676.459 161.141C674.525 161.141 672.655 162.302 670.849 164.623C669.044 166.88 667.69 170.491 666.787 175.456C666.271 178.358 666.013 181.13 666.013 183.774C666.078 186.353 666.658 188.449 667.754 190.061C668.915 191.673 670.785 192.479 673.364 192.479C675.234 192.479 677.04 192.124 678.781 191.415C680.586 190.641 682.23 189.61 683.713 188.32C684.358 189.094 684.81 189.932 685.068 190.835C685.39 191.673 685.551 192.64 685.551 193.736C683.036 196.122 680.296 197.96 677.33 199.25C674.428 200.539 670.946 201.184 666.884 201.184Z" fill="#5C5444"/>
<line y1="-1.9167" x2="74.5577" y2="-1.9167" transform="matrix(0.999999 -0.00154381 0.00153826 0.999999 94.7845 214.688)" stroke="#5C5444" stroke-width="3.83339"/>
<line x1="644.493" y1="212.772" x2="686.66" y2="212.772" stroke="#5C5444" stroke-width="3.83339"/>
<line x1="221.286" y1="212.772" x2="577.792" y2="212.772" stroke="#5C5444" stroke-width="3.83339"/>
<defs>
<filter id="filter0_f_3_11" x="27.3682" y="22.288" width="723.553" height="311.977" filterUnits="userSpaceOnUse" color-interpolation-filters="sRGB">
<feFlood flood-opacity="0" result="BackgroundImageFix"/>
<feBlend mode="normal" in="SourceGraphic" in2="BackgroundImageFix" result="shape"/>
<feGaussianBlur stdDeviation="0.427632" result="effect1_foregroundBlur_3_11"/>
</filter>
</defs>
</svg>
